<svg width="21" height="21" viewBox="0 0 21 21" fill="none" xmlns="http://www.w3.org/2000/svg">
<g clip-path="url(#clip0_1_345)">
<path d="M20.4479 7.89615C20.3169 7.49117 19.9577 7.20354 19.5328 7.16524L13.7602 6.64108L11.4776 1.29839C11.3093 0.906836 10.926 0.653381 10.5001 0.653381C10.0742 0.653381 9.69091 0.906836 9.5226 1.2993L7.23998 6.64108L1.46651 7.16524C1.04231 7.20445 0.684023 7.49117 0.552336 7.89615C0.42065 8.30113 0.542265 8.74533 0.863166 9.02533L5.22653 12.852L3.93987 18.5197C3.84573 18.9365 4.00747 19.3672 4.35325 19.6172C4.5391 19.7515 4.75655 19.8198 4.97582 19.8198C5.16488 19.8198 5.35242 19.7689 5.52073 19.6682L10.5001 16.6922L15.4776 19.6682C15.8419 19.8873 16.301 19.8673 16.646 19.6172C16.992 19.3665 17.1536 18.9356 17.0594 18.5197L15.7728 12.852L20.1361 9.02609C20.457 8.74533 20.5796 8.30189 20.4479 7.89615Z" fill="#FFDA1D"/>
</g>
<defs>
<clipPath id="clip0_1_345">
<rect width="20" height="20" fill="white" transform="translate(0.5 0.224243)"/>
</clipPath>
</defs>
</svg>
