<svg width="180" height="41" viewBox="0 0 180 41" fill="none" xmlns="http://www.w3.org/2000/svg">
<path d="M119.895 29.8541H116.259V28.6394C115.336 29.3224 114.267 29.7807 113.136 29.978C112.006 30.1753 110.845 30.1061 109.745 29.776C108.185 29.3312 106.82 28.3757 105.867 27.0624C104.902 25.7626 104.389 24.1823 104.407 22.5633C104.425 20.9444 104.973 19.3759 105.967 18.0977C106.542 17.3265 107.266 16.678 108.095 16.1901C108.925 15.7022 109.843 15.3847 110.797 15.2563C112.716 14.9746 114.669 15.4622 116.23 16.6131V10.3975H119.895V29.8541ZM112.182 26.7144C112.98 26.713 113.76 26.4751 114.424 26.0307C115.087 25.5863 115.604 24.9554 115.909 24.2176C116.214 23.4797 116.294 22.668 116.139 21.8848C115.983 21.1016 115.599 20.382 115.035 19.8169C114.471 19.2517 113.752 18.8664 112.969 18.7094C112.186 18.5524 111.374 18.6308 110.636 18.9348C109.898 19.2387 109.266 19.7546 108.821 20.4173C108.375 21.0799 108.136 21.8597 108.133 22.6582C108.135 23.7322 108.562 24.7617 109.321 25.5218C110.079 26.2818 111.108 26.7106 112.182 26.7144Z" fill="black"/>
<path d="M74.1671 28.7019V34.0722H70.4878V15.5177H74.1387L74.2097 16.633C75.1464 15.9506 76.2313 15.4997 77.3757 15.317C78.5201 15.1342 79.6914 15.2249 80.7941 15.5816C82.4225 16.0762 83.8238 17.1304 84.7503 18.558C85.7108 20.0135 86.1305 21.7598 85.9362 23.4928C85.7419 25.2258 84.9461 26.8358 83.6872 28.0425C82.4283 29.2491 80.7861 29.9759 79.0465 30.0964C77.307 30.2169 75.5803 29.7235 74.1671 28.7019ZM82.2572 22.6781C82.2586 21.8793 82.0233 21.098 81.581 20.4328C81.1387 19.7677 80.5093 19.2485 79.7721 18.9409C79.035 18.6333 78.2233 18.551 77.4394 18.7044C76.6556 18.8578 75.9347 19.2401 75.368 19.803C74.8012 20.3658 74.4139 21.084 74.255 21.8669C74.0961 22.6497 74.1727 23.4621 74.4751 24.2014C74.7775 24.9408 75.2922 25.5739 75.9542 26.0209C76.6161 26.4679 77.3957 26.7087 78.1944 26.7129C79.2676 26.7148 80.2978 26.2912 81.0593 25.535C81.8208 24.7787 82.2516 23.7514 82.2572 22.6781Z" fill="black"/>
<path d="M99.1692 28.6948C98.0596 29.5066 96.7471 29.9959 95.3769 30.1085C94.0066 30.2211 92.6319 29.9528 91.4046 29.333C90.1773 28.7133 89.1452 27.7663 88.4222 26.5968C87.6993 25.4272 87.3137 24.0805 87.308 22.7055C87.3024 21.3305 87.6769 19.9807 88.3902 18.8052C89.1034 17.6298 90.1277 16.6743 91.3499 16.0445C92.5721 15.4147 93.9445 15.135 95.3156 15.2364C96.6868 15.3377 98.0032 15.8161 99.1195 16.6188V15.5106H102.806V29.8314H99.1692V28.6948ZM99.1692 22.6994C99.1749 21.8982 98.9423 21.1134 98.501 20.4447C98.0597 19.7759 97.4296 19.2535 96.6908 18.9436C95.952 18.6337 95.1378 18.5504 94.3516 18.7043C93.5653 18.8582 92.8426 19.2423 92.2751 19.8079C91.7076 20.3734 91.3209 21.0949 91.1643 21.8807C91.0076 22.6664 91.088 23.481 91.3953 24.221C91.7025 24.961 92.2227 25.593 92.8898 26.0366C93.5569 26.4803 94.3408 26.7157 95.1419 26.7129C96.2003 26.6982 97.2111 26.2701 97.9582 25.5202C98.7054 24.7703 99.1298 23.758 99.1408 22.6994H99.1692Z" fill="black"/>
<path d="M169.949 22.6577C169.95 24.1298 169.515 25.5693 168.699 26.7941C167.882 28.019 166.721 28.9743 165.362 29.5393C164.003 30.1042 162.506 30.2535 161.062 29.9682C159.618 29.6829 158.291 28.9758 157.249 27.9364C156.207 26.897 155.496 25.5718 155.207 24.1285C154.917 22.6851 155.062 21.1884 155.623 19.8274C156.184 18.4664 157.136 17.3023 158.358 16.4823C159.581 15.6623 161.019 15.2231 162.491 15.2203C163.47 15.2165 164.439 15.4062 165.344 15.7784C166.25 16.1505 167.072 16.6979 167.765 17.389C168.458 18.0801 169.008 18.9013 169.383 19.8055C169.757 20.7096 169.95 21.6789 169.949 22.6577ZM162.512 26.7138C163.311 26.711 164.09 26.4718 164.753 26.0263C165.416 25.5807 165.931 24.9489 166.235 24.2105C166.539 23.4721 166.618 22.6602 166.461 21.8773C166.304 21.0944 165.918 20.3755 165.353 19.8114C164.788 19.2472 164.069 18.8631 163.286 18.7075C162.502 18.5519 161.691 18.6317 160.953 18.937C160.215 19.2422 159.584 19.7592 159.14 20.4227C158.696 21.0861 158.458 21.8663 158.456 22.6648C158.458 23.7393 158.886 24.7692 159.647 25.5283C160.407 26.2875 161.438 26.7138 162.512 26.7138Z" fill="black"/>
<path d="M51.2397 13.6509V29.8328H47.5888V13.6793H42.3256V10.3975H56.4816V13.6509H51.2397Z" fill="black"/>
<path d="M142.476 25.0861H146.027C146.361 26.8478 147.632 27.6008 149.266 27.0183C149.557 26.9507 149.82 26.7927 150.017 26.5669C150.213 26.3411 150.333 26.0591 150.36 25.761C150.405 25.4582 150.341 25.1493 150.18 24.8891C150.019 24.629 149.77 24.4345 149.479 24.3403C148.57 23.9922 147.625 23.7507 146.709 23.4381C145.972 23.2353 145.258 22.9567 144.578 22.607C144.032 22.3013 143.572 21.8609 143.244 21.3276C142.915 20.7944 142.729 20.186 142.702 19.5603C142.675 18.9346 142.808 18.3123 143.089 17.7527C143.37 17.1931 143.79 16.7147 144.308 16.363C145.384 15.66 146.634 15.2681 147.918 15.2305C149.203 15.1929 150.473 15.5111 151.589 16.1498C152.178 16.5179 152.659 17.0348 152.985 17.6484C153.31 18.2621 153.468 18.9507 153.442 19.6448H150.097C150.023 19.3176 149.872 19.0125 149.658 18.7545C149.444 18.4964 149.171 18.2926 148.863 18.1597C148.555 18.0267 148.22 17.9684 147.885 17.9895C147.55 18.0106 147.225 18.1104 146.936 18.2809C146.742 18.3543 146.572 18.4828 146.449 18.6507C146.326 18.8186 146.255 19.0186 146.243 19.2264C146.232 19.4343 146.282 19.6409 146.386 19.8211C146.49 20.0014 146.644 20.1474 146.83 20.2415C147.37 20.5208 147.939 20.74 148.527 20.895C149.33 21.1508 150.154 21.3283 150.949 21.6054C152.484 22.1168 153.627 23.0261 153.854 24.7452C153.978 25.5363 153.879 26.3464 153.568 27.0843C153.257 27.8222 152.746 28.4586 152.093 28.9221C149.792 30.6837 145.864 30.492 143.861 28.5314C143.409 28.0802 143.054 27.5424 142.816 26.9503C142.578 26.3583 142.462 25.7241 142.476 25.0861Z" fill="black"/>
<path d="M135.601 15.4751C135.033 17.116 134.493 18.6646 133.96 20.2131C132.909 23.2677 131.829 26.3151 130.813 29.3696C130.785 29.5314 130.696 29.6759 130.563 29.7727C130.431 29.8695 130.266 29.9109 130.103 29.8882C128.803 29.8882 127.503 29.8882 126.182 29.8882C124.534 25.1004 122.901 20.341 121.21 15.4893C122.503 15.4893 123.682 15.4893 124.861 15.4893C125.01 15.4893 125.202 15.8018 125.266 16.0078C126.211 18.97 127.141 21.9393 128.107 24.9086C128.192 25.1785 128.285 25.4485 128.42 25.8676C128.533 25.5408 128.612 25.3419 128.675 25.1572C129.634 22.1169 130.6 19.0766 131.517 16.0362C131.644 15.6171 131.815 15.4537 132.262 15.4679C133.356 15.4964 134.436 15.4751 135.601 15.4751Z" fill="black"/>
<path d="M171.704 29.8388V15.5109H175.376V17.4004C175.816 16.5693 176.328 15.8163 177.279 15.6387C178.181 15.5158 179.09 15.4423 180 15.4185V18.402C180 18.5441 180 18.6933 179.957 18.9064H178.679C178.26 18.9064 177.84 18.9064 177.421 18.9561C177.142 18.9602 176.866 19.0214 176.611 19.1359C176.356 19.2504 176.127 19.4158 175.938 19.622C175.749 19.8282 175.604 20.0709 175.512 20.335C175.421 20.5992 175.384 20.8793 175.404 21.1582C175.404 23.8362 175.404 26.5072 175.404 29.1852V29.8388H171.704Z" fill="black"/>
<path d="M54.7264 15.5106H58.3702V17.4073C58.5303 16.9836 58.7871 16.6032 59.12 16.2961C59.4529 15.9891 59.8528 15.7639 60.288 15.6385C61.169 15.5174 62.0557 15.4416 62.9445 15.4112V18.8635C62.7669 18.8635 62.5893 18.8635 62.4046 18.8635C61.8506 18.8635 61.2895 18.8635 60.7426 18.8635C59.1231 18.9701 58.3986 19.7444 58.3915 21.3569C58.3915 23.9426 58.3915 26.5212 58.3915 29.1069V29.7675H54.7264V15.5106Z" fill="black"/>
<path d="M64.6793 15.5116H68.3089V29.8324H64.6793V15.5116Z" fill="black"/>
<path d="M137.191 15.5045H140.806V29.8395H137.191V15.5045Z" fill="black"/>
<path d="M68.7119 12.0442C68.7159 12.3412 68.6597 12.636 68.5468 12.9107C68.4339 13.1855 68.2665 13.4345 68.0549 13.6429C67.8432 13.8513 67.5915 14.0147 67.3151 14.1233C67.0386 14.2319 66.743 14.2834 66.4461 14.2747C65.8717 14.2424 65.3315 13.9915 64.9363 13.5734C64.5411 13.1553 64.3209 12.6018 64.3209 12.0264C64.3209 11.4511 64.5411 10.8976 64.9363 10.4795C65.3315 10.0614 65.8717 9.81046 66.4461 9.77816C66.7458 9.77034 67.0439 9.82361 67.3224 9.93473C67.6008 10.0458 67.8537 10.2125 68.0657 10.4245C68.2777 10.6365 68.4443 10.8894 68.5554 11.1679C68.6665 11.4463 68.7197 11.7445 68.7119 12.0442Z" fill="black"/>
<path d="M138.953 14.2745C138.51 14.2647 138.08 14.1238 137.717 13.8696C137.353 13.6155 137.074 13.2595 136.912 12.8465C136.751 12.4335 136.716 11.982 136.811 11.549C136.906 11.116 137.127 10.7208 137.447 10.4134C137.766 10.1059 138.169 9.89983 138.605 9.82122C139.042 9.74261 139.491 9.79495 139.898 9.97164C140.304 10.1483 140.65 10.4415 140.89 10.8141C141.13 11.1867 141.254 11.6221 141.248 12.0653C141.246 12.3622 141.185 12.6557 141.068 12.9285C140.951 13.2014 140.78 13.448 140.566 13.6539C140.353 13.8598 140.1 14.0208 139.823 14.1274C139.546 14.234 139.25 14.284 138.953 14.2745Z" fill="black"/>
<path d="M14.4689 14.1111C17.1964 15.3684 19.036 17.2438 19.5829 20.1917C20.1299 17.2224 21.9837 15.3613 24.7041 14.1111C21.4161 12.8113 17.7568 12.8113 14.4689 14.1111Z" fill="black"/>
<path d="M12.5504 16.5129C11.6256 16.5199 10.7235 16.8008 9.95818 17.32C9.19282 17.8393 8.59841 18.5737 8.25 19.4305C7.90159 20.2873 7.81478 21.2281 8.00053 22.1342C8.18629 23.0403 8.63628 23.8711 9.29371 24.5216C9.95114 25.1722 10.7865 25.6134 11.6945 25.7896C12.6024 25.9657 13.5422 25.8689 14.3951 25.5114C15.2481 25.1539 15.9761 24.5517 16.4872 23.7808C16.9982 23.0099 17.2695 22.1049 17.2667 21.1799C17.2706 20.5617 17.1509 19.949 16.9146 19.3778C16.6783 18.8065 16.3303 18.2883 15.8909 17.8535C15.4515 17.4187 14.9296 17.0761 14.356 16.8459C13.7823 16.6157 13.1684 16.5024 12.5504 16.5129ZM12.6001 23.7159C12.0992 23.7229 11.6074 23.581 11.1873 23.308C10.7671 23.0351 10.4375 22.6435 10.2402 22.1829C10.043 21.7223 9.98701 21.2135 10.0794 20.721C10.1718 20.2285 10.4083 19.7746 10.7591 19.4168C11.1098 19.059 11.559 18.8135 12.0495 18.7114C12.54 18.6093 13.0497 18.6553 13.5141 18.8434C13.9784 19.0316 14.3764 19.3534 14.6576 19.7681C14.9387 20.1829 15.0904 20.6718 15.0932 21.1728C15.097 21.8399 14.8372 22.4814 14.3702 22.9577C13.9033 23.434 13.2671 23.7065 12.6001 23.7159Z" fill="black"/>
<path d="M26.6088 16.5132C25.6815 16.5062 24.7731 16.7747 23.9987 17.2848C23.2242 17.7949 22.6188 18.5235 22.259 19.3783C21.8993 20.233 21.8015 21.1753 21.9781 22.0857C22.1547 22.9962 22.5977 23.8336 23.2509 24.4918C23.904 25.1501 24.738 25.5995 25.6469 25.783C26.5559 25.9665 27.4988 25.8759 28.3562 25.5227C29.2136 25.1694 29.9467 24.5694 30.4626 23.7989C30.9786 23.0283 31.254 22.1218 31.254 21.1944C31.2587 20.5814 31.142 19.9734 30.9107 19.4057C30.6793 18.8379 30.3379 18.3216 29.9061 17.8864C29.4743 17.4513 28.9606 17.1059 28.3947 16.8702C27.8288 16.6345 27.2218 16.5132 26.6088 16.5132ZM26.5448 23.7162C25.9309 23.6364 25.3677 23.334 24.9618 22.8666C24.5559 22.3991 24.3356 21.7989 24.3426 21.1799C24.3496 20.5608 24.5834 19.9658 24.9998 19.5076C25.4162 19.0494 25.9861 18.7599 26.6017 18.694C27.2723 18.7015 27.9125 18.9752 28.3813 19.4548C28.8502 19.9344 29.1094 20.5806 29.1019 21.2513C29.0943 21.922 28.8207 22.5622 28.3412 23.0311C27.8616 23.5001 27.2155 23.7593 26.5448 23.7517V23.7162Z" fill="black"/>
<path d="M19.5971 0.934814C15.8041 0.934814 12.0962 2.05968 8.94248 4.16717C5.78871 6.27465 3.33066 9.2701 1.87914 12.7747C0.427621 16.2793 0.0478378 20.1357 0.787815 23.8562C1.52779 27.5767 3.35429 30.9942 6.03635 33.6765C8.7184 36.3588 12.1355 38.1855 15.8557 38.9256C19.5758 39.6656 23.4318 39.2858 26.9361 37.8341C30.4403 36.3825 33.4355 33.9242 35.5428 30.7701C37.65 27.616 38.7748 23.9078 38.7748 20.1145C38.7748 17.5957 38.2787 15.1017 37.315 12.7747C36.3512 10.4477 34.9386 8.33339 33.1578 6.5524C31.3769 4.77141 29.2628 3.35864 26.9361 2.39478C24.6093 1.43091 22.1155 0.934814 19.5971 0.934814ZM33.5471 22.0821C33.3647 23.6566 32.6358 25.1172 31.4872 26.2093C30.1971 27.46 28.4808 28.1752 26.6844 28.2108C24.8879 28.2464 23.1448 27.5997 21.806 26.4011C21.0958 27.1754 20.3855 27.9568 19.5828 28.8021L17.3668 26.4011C15.9566 27.4511 14.2072 27.9407 12.4569 27.7752C10.7066 27.6098 9.07992 26.8011 7.8914 25.5055C6.70288 24.2099 6.03701 22.5196 6.0226 20.7614C6.0082 19.0032 6.64627 17.3022 7.8134 15.9873L5.59021 13.5579C5.8317 13.5579 5.97376 13.4939 6.10872 13.4939C6.51358 13.4939 6.91844 13.4939 7.3162 13.4939C9.305 13.6431 11.237 13.5294 12.8991 12.2437C15.2985 11.1133 17.9438 10.6047 20.5914 10.7648C23.239 10.925 25.8037 11.7487 28.0495 13.1601C28.371 13.3502 28.7346 13.4575 29.1078 13.4726C30.3863 13.5081 31.6719 13.4726 32.9575 13.4726L33.6678 13.5152L31.3949 16.0015C32.2146 16.7684 32.838 17.7211 33.2126 18.7793C33.5871 19.8375 33.7018 20.9703 33.5471 22.0821Z" fill="black"/>
<path d="M19.5329 40.0042C30.3206 40.0042 39.0658 31.0992 39.0658 20.1142C39.0658 9.1293 30.3206 0.224243 19.5329 0.224243C8.74517 0.224243 0 9.1293 0 20.1142C0 31.0992 8.74517 40.0042 19.5329 40.0042Z" fill="#34E0A1"/>
<path d="M31.7136 16.466L34.0938 13.8097H28.8156C26.1732 11.9581 22.9819 10.8798 19.5307 10.8798C16.0838 10.8798 12.9015 11.9605 10.2635 13.8097H4.97205L7.35221 16.466C5.89328 17.8314 4.97868 19.7982 4.97868 21.9821C4.97868 26.1033 8.23602 29.4446 12.2536 29.4446C14.1622 29.4446 15.901 28.6895 17.1991 27.4551L19.5308 30.0595L21.8624 27.4574C23.1605 28.6918 24.8971 29.4446 26.8057 29.4446C30.8233 29.4446 34.085 26.1033 34.085 21.9821C34.0872 19.796 33.1726 17.8292 31.7136 16.466ZM12.2558 27.0324C9.53621 27.0324 7.33242 24.7718 7.33242 21.9821C7.33242 19.1924 9.53627 16.9317 12.2558 16.9317C14.9753 16.9317 17.1792 19.1924 17.1792 21.9821C17.1792 24.7718 14.9753 27.0324 12.2558 27.0324ZM19.5329 21.8351C19.5329 18.5119 17.177 15.6589 14.0674 14.4404C15.7489 13.7192 17.5935 13.3191 19.5307 13.3191C21.4679 13.3191 23.3147 13.7192 24.9963 14.4404C21.8889 15.6612 19.5329 18.5119 19.5329 21.8351ZM26.8079 27.0324C24.0883 27.0324 21.8844 24.7718 21.8844 21.9821C21.8844 19.1924 24.0883 16.9317 26.8079 16.9317C29.5275 16.9317 31.7313 19.1924 31.7313 21.9821C31.7313 24.7718 29.5274 27.0324 26.8079 27.0324ZM26.8079 19.3325C25.382 19.3325 24.2271 20.5171 24.2271 21.9798C24.2271 23.4424 25.382 24.627 26.8079 24.627C28.2337 24.627 29.3886 23.4424 29.3886 21.9798C29.3885 20.5194 28.2337 19.3325 26.8079 19.3325ZM14.8365 21.9821C14.8365 23.4447 13.6817 24.6293 12.2558 24.6293C10.8299 24.6293 9.6751 23.4447 9.6751 21.9821C9.6751 20.5194 10.8299 19.3348 12.2558 19.3348C13.6817 19.3325 14.8365 20.5194 14.8365 21.9821Z" fill="black"/>
</svg>
