<svg width="180" height="41" viewBox="0 0 180 41" fill="none" xmlns="http://www.w3.org/2000/svg">
<path d="M16.8791 2.22579V7.63577H13.8604C13.8604 7.63577 11.1229 7.24626 11.1229 9.88633V14.2143H16.8791L16.1975 20.1437H11.1229V36.7848H4.52274V20.0896H0V14.236H4.68505V9.25877C4.55401 8.34067 4.65464 7.40438 4.97778 6.5351C5.30093 5.66582 5.83633 4.89115 6.53526 4.28158C8.10148 2.91853 10.1182 2.18588 12.1941 2.22579H16.8791Z" fill="#3C599B"/>
<path d="M32.8907 14.3336V17.3091C32.1303 16.2218 31.1251 15.3283 29.9562 14.7006C28.7872 14.0729 27.4871 13.7285 26.1607 13.6953C21.0104 13.6953 16.8339 18.2396 16.8339 25.5972C16.8339 32.9548 21.0104 37.4992 26.1607 37.4992C27.493 37.4594 28.797 37.1054 29.9665 36.4661C31.136 35.8269 32.138 34.9203 32.8907 33.8204V36.7201H39.2853V14.3336H32.8907ZM32.5337 27.8478C32.5337 28.9956 32.0777 30.0965 31.2661 30.9081C30.4544 31.7198 29.3536 32.1757 28.2057 32.1757C27.0578 32.1757 25.957 31.7198 25.1454 30.9081C24.3337 30.0965 23.8777 28.9956 23.8777 27.8478V23.5198C23.8777 22.3719 24.3337 21.2711 25.1454 20.4594C25.957 19.6478 27.0578 19.1918 28.2057 19.1918C29.3536 19.1918 30.4544 19.6478 31.2661 20.4594C32.0777 21.2711 32.5337 22.3719 32.5337 23.5198V27.8478Z" fill="#3C599B"/>
<path d="M91.5134 36.9358V33.9603C92.2695 35.0418 93.2678 35.9318 94.4287 36.5592C95.5897 37.1866 96.8811 37.5342 98.2001 37.5742C103.35 37.5742 107.527 33.0406 107.527 25.6722C107.527 18.3038 103.35 13.7702 98.2001 13.7702C96.8682 13.8117 95.5649 14.1664 94.3956 14.8056C93.2263 15.4447 92.2241 16.3503 91.4701 17.449V2.62567L84.8158 3.37225V36.9141L91.5134 36.9358ZM91.8704 23.4108C91.8704 22.263 92.3264 21.1621 93.1381 20.3505C93.9497 19.5388 95.0506 19.0828 96.1984 19.0828C97.3463 19.0828 98.4471 19.5388 99.2588 20.3505C100.07 21.1621 100.526 22.263 100.526 23.4108V27.7388C100.526 28.8867 100.07 29.9875 99.2588 30.7992C98.4471 31.6108 97.3463 32.0668 96.1984 32.0668C95.0506 32.0668 93.9497 31.6108 93.1381 30.7992C92.3264 29.9875 91.8704 28.8867 91.8704 27.7388V23.4108Z" fill="#3C599B"/>
<path d="M53.7329 32.1209C53.7329 32.1209 48.615 32.413 48.615 25.7804V25.4125C48.615 18.7691 53.7329 19.072 53.7329 19.072C57.2061 19.0179 58.4179 20.2406 58.4179 20.2406L60.0301 15.4041C57.2493 13.4024 48.8855 13.0128 45.0985 16.4752C41.8525 19.4832 41.8525 24.3413 41.8525 25.5965C41.8525 26.8516 41.7876 31.7097 45.0985 34.7069C48.8531 38.1693 57.2493 37.8338 60.0301 35.7889L58.4179 30.9632C58.4179 30.9632 57.2061 32.1642 53.7329 32.1209Z" fill="#3C599B"/>
<path d="M82.09 27.9998C82.09 27.9998 84.7734 13.9339 71.9409 13.869C59.1084 13.804 60.9587 26.5824 60.9587 26.5824C61.2508 34.3403 64.8106 36.5909 70.913 37.3266C74.5742 37.7598 78.2845 37.203 81.6572 35.7145L80.2615 31.1701C77.3961 32.0298 74.4121 32.4279 71.4216 32.3494C67.5264 32.0032 67.8185 28.0215 67.8185 28.0215L82.09 27.9998ZM67.6995 23.4663C67.6995 23.4663 67.3533 18.4783 71.8435 18.4783C76.3338 18.4783 75.9876 23.4663 75.9876 23.4663H67.6995Z" fill="#3C599B"/>
<path d="M120.75 14.0092C112.397 14.0092 109.583 19.0513 109.583 25.7813C109.583 32.9333 113.208 37.5643 120.75 37.5643C126.917 37.5643 131.916 33.4202 131.916 25.7813C131.916 19.2785 128.724 14.0092 120.75 14.0092ZM125.078 27.7397C125.078 28.9106 124.612 30.0334 123.785 30.8613C122.957 31.6892 121.834 32.1543 120.663 32.1543C119.492 32.1543 118.369 31.6892 117.541 30.8613C116.714 30.0334 116.248 28.9106 116.248 27.7397V23.4118C116.248 22.241 116.714 21.1181 117.541 20.2902C118.369 19.4623 119.492 18.9972 120.663 18.9972C121.834 18.9972 122.957 19.4623 123.785 20.2902C124.612 21.1181 125.078 22.241 125.078 23.4118V27.7397Z" fill="#3C599B"/>
<path d="M145.419 14.0092C137.055 14.0092 134.242 19.0513 134.242 25.7813C134.242 32.9333 137.866 37.5643 145.419 37.5643C151.586 37.5643 156.585 33.4202 156.585 25.7813C156.585 19.2785 153.393 14.0092 145.419 14.0092ZM149.747 27.7397C149.691 28.8713 149.202 29.9381 148.381 30.7191C147.56 31.5002 146.47 31.9358 145.337 31.9358C144.204 31.9358 143.115 31.5002 142.294 30.7191C141.473 29.9381 140.984 28.8713 140.928 27.7397V23.4118C140.984 22.2802 141.473 21.2134 142.294 20.4324C143.115 19.6513 144.204 19.2157 145.337 19.2157C146.47 19.2157 147.56 19.6513 148.381 20.4324C149.202 21.2134 149.691 22.2802 149.747 23.4118V27.7397Z" fill="#3C599B"/>
<path d="M180 36.8822L172.707 25.5753L179.676 14.2793H172.534L165.729 24.3959V2.4314L159.02 3.13469V36.8822H165.729V25.3805L173.075 36.8822H180Z" fill="#3C599B"/>
</svg>
