<svg width="180" height="41" viewBox="0 0 180 41" fill="none" xmlns="http://www.w3.org/2000/svg">
<path d="M59.0156 14.3235H44.6469V18.557H54.8727C54.3741 24.4858 49.4335 27.0151 44.7829 27.0151C43.3077 27.0212 41.846 26.7334 40.4833 26.1684C39.1205 25.6034 37.884 24.7725 36.846 23.7243C35.8079 22.6761 34.9891 21.4316 34.4373 20.0634C33.8856 18.6953 33.612 17.2309 33.6324 15.7558C33.6059 14.2741 33.8754 12.8021 34.4252 11.4259C34.9751 10.0498 35.7941 8.79727 36.8344 7.74182C37.8746 6.68638 39.1151 5.84925 40.4831 5.27953C41.8511 4.7098 43.3191 4.41894 44.801 4.42401C47.6444 4.42677 50.3753 5.53536 52.416 7.51532L55.3804 4.4512C53.9568 3.07617 52.276 1.9953 50.4342 1.27042C48.5925 0.545541 46.6259 0.190876 44.6469 0.226712C40.5421 0.261155 36.6122 1.89353 33.691 4.77751C30.7697 7.6615 29.0871 11.5702 29 15.6742C29.0431 19.8434 30.7388 23.8251 33.7149 26.7451C36.6911 29.6652 40.7043 31.2849 44.8736 31.2486C53.1866 31.2486 59.2785 25.5555 59.2785 17.1337C59.2969 16.1901 59.2087 15.2473 59.0156 14.3235Z" fill="#4285F4"/>
<path d="M71.1907 11.2686C69.2184 11.2686 67.2904 11.8534 65.6505 12.9491C64.0107 14.0449 62.7325 15.6023 61.9778 17.4244C61.223 19.2466 61.0255 21.2516 61.4103 23.186C61.7951 25.1203 62.7448 26.8972 64.1394 28.2918C65.534 29.6864 67.3109 30.6361 69.2452 31.0209C71.1796 31.4057 73.1846 31.2082 75.0068 30.4534C76.8289 29.6987 78.3863 28.4205 79.4821 26.7807C80.5778 25.1408 81.1626 23.2128 81.1626 21.2405C81.1626 14.6228 75.95 11.2686 71.1907 11.2686ZM71.2451 15.1848C72.0158 15.203 72.775 15.3761 73.4775 15.6938C74.18 16.0114 74.8114 16.4672 75.3341 17.0339C75.8568 17.6006 76.2602 18.2667 76.5202 18.9925C76.7802 19.7183 76.8915 20.489 76.8475 21.2587C76.9101 22.0396 76.8103 22.825 76.5544 23.5655C76.2985 24.306 75.892 24.9855 75.3607 25.5611C74.8293 26.1368 74.1844 26.5962 73.4667 26.9105C72.7491 27.2247 71.9741 27.3869 71.1907 27.3869C70.4072 27.3869 69.6323 27.2247 68.9146 26.9105C68.1969 26.5962 67.5521 26.1368 67.0207 25.5611C66.4893 24.9855 66.0829 24.306 65.827 23.5655C65.5711 22.825 65.4713 22.0396 65.5338 21.2587C65.4959 20.4828 65.6152 19.7072 65.8846 18.9785C66.1539 18.2499 66.5677 17.5832 67.1011 17.0184C67.6345 16.4537 68.2765 16.0026 68.9887 15.6922C69.7008 15.3817 70.4683 15.2184 71.2451 15.212V15.1848Z" fill="#EA4335"/>
<path d="M92.8925 11.2686C90.9222 11.2775 88.9987 11.87 87.3648 12.9711C85.7309 14.0723 84.4598 15.6328 83.712 17.4557C82.9642 19.2786 82.7732 21.2822 83.1631 23.2136C83.5529 25.145 84.5062 26.9176 85.9026 28.3077C87.299 29.6977 89.0759 30.643 91.009 31.0241C92.9422 31.4052 94.9449 31.2051 96.7644 30.449C98.5839 29.6929 100.139 28.4148 101.232 26.7759C102.326 25.137 102.91 23.2109 102.91 21.2405C102.91 14.6228 97.6972 11.2686 92.8925 11.2686ZM92.9469 15.1848C93.7181 15.2018 94.4779 15.374 95.181 15.6912C95.884 16.0085 96.5159 16.4642 97.0389 17.0312C97.5619 17.5981 97.9652 18.2647 98.2247 18.9911C98.4842 19.7174 98.5946 20.4887 98.5494 21.2587C98.6119 22.0396 98.5121 22.825 98.2562 23.5655C98.0003 24.306 97.5939 24.9855 97.0625 25.5611C96.5311 26.1368 95.8863 26.5962 95.1686 26.9105C94.4509 27.2247 93.676 27.3869 92.8925 27.3869C92.1091 27.3869 91.3341 27.2247 90.6165 26.9105C89.8988 26.5962 89.254 26.1368 88.7226 25.5611C88.1912 24.9855 87.7847 24.306 87.5288 23.5655C87.2729 22.825 87.1731 22.0396 87.2357 21.2587C87.1978 20.4828 87.3171 19.7072 87.5864 18.9785C87.8557 18.2499 88.2695 17.5832 88.803 17.0184C89.3364 16.4537 89.9784 16.0026 90.6905 15.6922C91.4026 15.3817 92.1701 15.2184 92.9469 15.212V15.1848Z" fill="#FBBC05"/>
<path d="M114.305 11.2774C108.938 11.2774 104.723 15.9733 104.723 21.2494C104.688 23.8222 105.662 26.3064 107.436 28.1702C109.21 30.034 111.643 31.1292 114.214 31.2214C115.248 31.2705 116.279 31.0762 117.223 30.6542C118.168 30.2322 119.001 29.5943 119.654 28.7918V30.759C119.654 34.2039 117.56 36.2708 114.405 36.2708C113.295 36.2591 112.213 35.9141 111.302 35.2804C110.39 34.6468 109.69 33.7537 109.292 32.7172L105.466 34.3489C106.208 36.1101 107.458 37.6099 109.057 38.6565C110.656 39.703 112.53 40.2485 114.441 40.2233C119.781 40.2233 123.851 36.8691 123.851 29.8162V11.631H119.663V13.571C118.981 12.8259 118.148 12.2357 117.219 11.8401C116.29 11.4444 115.287 11.2525 114.278 11.2774H114.305ZM114.695 15.1937C117.324 15.1937 120.025 17.4328 120.025 21.2766C120.025 25.1203 117.306 27.3232 114.631 27.3232C111.776 27.3232 109.111 25.0025 109.111 21.3128C109.111 17.4782 111.83 15.1937 114.695 15.1937Z" fill="#4285F4"/>
<path d="M142.118 11.2504C137.051 11.2504 132.808 15.2755 132.808 21.2224C132.757 22.5354 132.975 23.845 133.449 25.0707C133.922 26.2965 134.641 27.4126 135.561 28.3506C136.481 29.2887 137.583 30.0288 138.8 30.5256C140.016 31.0224 141.321 31.2654 142.635 31.2397C144.28 31.2431 145.902 30.8463 147.359 30.0835C148.817 29.3207 150.067 28.2147 151.003 26.8611L147.549 24.5675C147.045 25.4104 146.328 26.1056 145.47 26.583C144.613 27.0605 143.644 27.3034 142.662 27.2872C141.637 27.3298 140.623 27.0641 139.75 26.5243C138.878 25.9846 138.187 25.1956 137.767 24.2593L151.148 18.7022L150.459 17.0795C149.818 15.3855 148.684 13.9223 147.204 12.8785C145.724 11.8347 143.965 11.2582 142.155 11.2232L142.118 11.2504ZM142.291 15.0941C143.046 15.0635 143.794 15.2474 144.448 15.6244C145.103 16.0015 145.637 16.5562 145.989 17.2245L137.042 20.9595C136.999 20.2292 137.101 19.4976 137.342 18.8069C137.583 18.1162 137.958 17.48 138.446 16.9348C138.934 16.3897 139.525 15.9464 140.185 15.6305C140.844 15.3146 141.56 15.1323 142.291 15.0941Z" fill="#EA4335"/>
<path d="M130.768 1.21497H126.67V30.6414H130.768V1.21497Z" fill="#34A853"/>
</svg>
