<svg width="20" height="21" viewBox="0 0 20 21" fill="none" xmlns="http://www.w3.org/2000/svg">
<g clip-path="url(#clip0_1_930)">
<path d="M19.4312 8.64609C19.548 9.31728 19.6061 9.99734 19.605 10.6786C19.605 13.7211 18.5175 16.2936 16.625 18.0348H16.6275C14.9725 19.5636 12.6975 20.4486 10 20.4486C7.34783 20.4486 4.8043 19.395 2.92893 17.5197C1.05357 15.6443 0 13.1008 0 10.4486C0 7.79643 1.05357 5.25289 2.92893 3.37753C4.8043 1.50216 7.34783 0.448596 10 0.448596C12.4822 0.420953 14.879 1.35337 16.69 3.0511L13.835 5.9061C12.8028 4.92266 11.4255 4.38399 10 4.4061C7.39125 4.4061 5.175 6.16609 4.385 8.53609C3.96687 9.7781 3.96687 11.1228 4.385 12.3648H4.38875C5.1825 14.7311 7.395 16.4911 10.0037 16.4911C11.3512 16.4911 12.5087 16.1461 13.4062 15.5361H13.4025C13.9237 15.191 14.3696 14.7437 14.7131 14.2214C15.0567 13.6992 15.2908 13.1126 15.4012 12.4973H10V8.64734L19.4312 8.64609Z" fill="#142C58"/>
</g>
<defs>
<clipPath id="clip0_1_930">
<rect width="20" height="20" fill="white" transform="translate(0 0.448486)"/>
</clipPath>
</defs>
</svg>
