<svg width="24" height="24" viewBox="0 0 24 24" fill="none" xmlns="http://www.w3.org/2000/svg">
<g clip-path="url(#clip0_1_1058)">
<mask id="mask0_1_1058" style="mask-type:luminance" maskUnits="userSpaceOnUse" x="-1" y="0" width="25" height="24">
<path d="M20.7605 5.24799C20.5486 4.70396 20.2958 4.31438 19.8884 3.90704C19.4797 3.49833 19.0915 3.24545 18.5461 3.03495C18.1347 2.87502 17.5168 2.68501 16.3795 2.63307C15.1493 2.57703 14.7802 2.56473 11.665 2.56473C8.54981 2.56473 8.18074 2.57703 6.95052 2.63307C5.81324 2.68501 5.19539 2.87502 4.78395 3.03495C4.23991 3.24682 3.85034 3.4997 3.443 3.90704C3.03429 4.31575 2.78141 4.70396 2.5709 5.24799C2.41097 5.65943 2.22097 6.27728 2.16903 7.41456C2.11299 8.64479 2.10068 9.01386 2.10068 12.1291C2.10068 15.2443 2.11299 15.6133 2.16903 16.8436C2.22097 17.9809 2.41097 18.5987 2.5709 19.0101C2.78278 19.5542 3.03566 19.9438 3.443 20.3511C3.85171 20.7598 4.23991 21.0113 4.78395 21.2232C5.19539 21.3831 5.81324 21.5731 6.95052 21.6251C8.18074 21.6811 8.54981 21.6934 11.665 21.6934C14.7802 21.6934 15.1493 21.6811 16.3795 21.6251C17.5168 21.5731 18.1347 21.3831 18.5461 21.2232C19.0915 21.0113 19.4797 20.7584 19.8884 20.3511C20.2958 19.9424 20.5486 19.5542 20.7605 19.0101C20.9204 18.5987 21.1104 17.9809 21.1624 16.8436C21.2184 15.6133 21.2307 15.2443 21.2307 12.1291C21.2307 9.01386 21.2184 8.64479 21.1624 7.41456C21.1104 6.27728 20.9204 5.65943 20.7605 5.24799ZM11.6664 18.1203C8.35708 18.1203 5.67518 15.4384 5.67518 12.1291C5.67518 8.81975 8.35708 6.13786 11.6664 6.13786C14.9757 6.13786 17.6576 8.81975 17.6576 12.1291C17.6576 15.4384 14.9757 18.1203 11.6664 18.1203ZM17.8941 7.3011C17.1204 7.3011 16.4944 6.67369 16.4944 5.90138C16.4944 5.12907 17.1218 4.50165 17.8941 4.50165C18.6664 4.50165 19.2938 5.1277 19.2938 5.90138C19.2938 6.67506 18.6664 7.3011 17.8941 7.3011ZM11.6664 8.24018C9.51896 8.24018 7.7775 9.98164 7.7775 12.1291C7.7775 14.2765 9.51896 16.018 11.6664 16.018C13.8138 16.018 15.5553 14.2765 15.5553 12.1291C15.5553 9.98164 13.8138 8.24018 11.6664 8.24018ZM23.2633 16.9393C23.2059 18.1804 23.0091 19.0293 22.7207 19.7715C22.4227 20.5384 22.0235 21.189 21.3743 21.8383C20.725 22.4862 20.0757 22.8854 19.3075 23.1834C18.5652 23.4718 17.7177 23.6686 16.4752 23.726C15.2313 23.7821 14.8335 23.7957 11.665 23.7957C8.4965 23.7957 8.1001 23.7821 6.85483 23.726C5.61367 23.6686 4.76481 23.4718 4.02257 23.1834C3.25573 22.8854 2.60508 22.4862 1.95579 21.8383C1.3065 21.189 0.908729 20.5384 0.61074 19.7715C0.32232 19.0293 0.125483 18.1818 0.0680726 16.9393C0.0120289 15.6954 -0.00164032 15.2976 -0.00164032 12.1291C-0.00164032 8.96055 0.0120289 8.56277 0.0680726 7.31887C0.124116 6.07771 0.32232 5.22885 0.61074 4.48662C0.908729 3.71977 1.30787 3.06912 1.95579 2.41983C2.60508 1.77191 3.25436 1.37277 4.02257 1.07478C4.76481 0.786362 5.6123 0.589526 6.85483 0.532115C8.09873 0.474705 8.4965 0.462402 11.665 0.462402C14.8335 0.462402 15.2313 0.476072 16.4752 0.532115C17.7164 0.588159 18.5652 0.786362 19.3075 1.07478C20.0743 1.37277 20.725 1.77191 21.3743 2.41983C22.0222 3.06912 22.4213 3.71977 22.7207 4.48662C23.0091 5.22885 23.2059 6.07634 23.2633 7.31887C23.3208 8.56277 23.3331 8.96055 23.3331 12.1291C23.3331 15.2976 23.3194 15.6954 23.2633 16.9393Z" fill="white"/>
</mask>
<g mask="url(#mask0_1_1058)">
<rect x="-0.307556" y="0.130371" width="23.9211" height="23.9211" fill="white"/>
</g>
</g>
<defs>
<clipPath id="clip0_1_1058">
<rect width="23.3333" height="23.3333" fill="white" transform="translate(0 0.462402)"/>
</clipPath>
</defs>
</svg>
