<svg width="24" height="24" viewBox="0 0 24 24" fill="none" xmlns="http://www.w3.org/2000/svg">
<g clip-path="url(#clip0_1_287)">
<mask id="mask0_1_287" style="mask-type:luminance" maskUnits="userSpaceOnUse" x="0" y="0" width="24" height="24">
<path d="M21.0107 4.78559C20.7988 4.24155 20.5459 3.85198 20.1386 3.44464C19.7299 3.03593 19.3417 2.78305 18.7963 2.57254C18.3848 2.41261 17.767 2.22261 16.6297 2.17067C15.3995 2.11463 15.0304 2.10232 11.9152 2.10232C8.79999 2.10232 8.43092 2.11463 7.20069 2.17067C6.06341 2.22261 5.44557 2.41261 5.03412 2.57254C4.49009 2.78442 4.10052 3.0373 3.69317 3.44464C3.28447 3.85335 3.03158 4.24155 2.82108 4.78559C2.66115 5.19703 2.47115 5.81488 2.4192 6.95216C2.36316 8.18239 2.35086 8.55145 2.35086 11.6667C2.35086 14.7819 2.36316 15.1509 2.4192 16.3812C2.47115 17.5184 2.66115 18.1363 2.82108 18.5477C3.03295 19.0918 3.28583 19.4813 3.69317 19.8887C4.10188 20.2974 4.49009 20.5489 5.03412 20.7608C5.44557 20.9207 6.06341 21.1107 7.20069 21.1627C8.43092 21.2187 8.79999 21.231 11.9152 21.231C15.0304 21.231 15.3995 21.2187 16.6297 21.1627C17.767 21.1107 18.3848 20.9207 18.7963 20.7608C19.3417 20.5489 19.7299 20.296 20.1386 19.8887C20.5459 19.48 20.7988 19.0918 21.0107 18.5477C21.1706 18.1363 21.3606 17.5184 21.4126 16.3812C21.4686 15.1509 21.4809 14.7819 21.4809 11.6667C21.4809 8.55145 21.4686 8.18239 21.4126 6.95216C21.3606 5.81488 21.1706 5.19703 21.0107 4.78559ZM11.9166 17.6579C8.60725 17.6579 5.92535 14.976 5.92535 11.6667C5.92535 8.35735 8.60725 5.67545 11.9166 5.67545C15.2259 5.67545 17.9078 8.35735 17.9078 11.6667C17.9078 14.976 15.2259 17.6579 11.9166 17.6579ZM18.1443 6.8387C17.3706 6.8387 16.7445 6.21129 16.7445 5.43898C16.7445 4.66667 17.3719 4.03925 18.1443 4.03925C18.9166 4.03925 19.544 4.6653 19.544 5.43898C19.544 6.21265 18.9166 6.8387 18.1443 6.8387ZM11.9166 7.77778C9.76913 7.77778 8.02768 9.51923 8.02768 11.6667C8.02768 13.8141 9.76913 15.5556 11.9166 15.5556C14.064 15.5556 15.8055 13.8141 15.8055 11.6667C15.8055 9.51923 14.064 7.77778 11.9166 7.77778ZM23.5135 16.4769C23.4561 17.718 23.2593 18.5669 22.9708 19.3091C22.6729 20.076 22.2737 20.7266 21.6244 21.3759C20.9751 22.0238 20.3259 22.423 19.5576 22.7209C18.8154 23.0094 17.9679 23.2062 16.7254 23.2636C15.4815 23.3197 15.0837 23.3333 11.9152 23.3333C8.74668 23.3333 8.35027 23.3197 7.10501 23.2636C5.86384 23.2062 5.01499 23.0094 4.27275 22.7209C3.50591 22.423 2.85525 22.0238 2.20596 21.3759C1.55668 20.7266 1.1589 20.076 0.860915 19.3091C0.572495 18.5669 0.375659 17.7194 0.318248 16.4769C0.262204 15.233 0.248535 14.8352 0.248535 11.6667C0.248535 8.49814 0.262204 8.10037 0.318248 6.85647C0.374292 5.61531 0.572495 4.76645 0.860915 4.02421C1.1589 3.25737 1.55804 2.60672 2.20596 1.95743C2.85525 1.30951 3.50454 0.910369 4.27275 0.61238C5.01499 0.32396 5.86248 0.127124 7.10501 0.0697129C8.3489 0.0123023 8.74668 0 11.9152 0C15.0837 0 15.4815 0.0136692 16.7254 0.0697129C17.9666 0.125757 18.8154 0.32396 19.5576 0.61238C20.3245 0.910369 20.9751 1.30951 21.6244 1.95743C22.2724 2.60672 22.6715 3.25737 22.9708 4.02421C23.2593 4.76645 23.4561 5.61394 23.5135 6.85647C23.5709 8.10037 23.5832 8.49814 23.5832 11.6667C23.5832 14.8352 23.5696 15.233 23.5135 16.4769Z" fill="white"/>
</mask>
<g mask="url(#mask0_1_287)">
<rect x="-0.057373" y="-0.332153" width="23.9211" height="23.9211" fill="#FFDA1D"/>
</g>
</g>
<defs>
<clipPath id="clip0_1_287">
<rect width="23.3333" height="23.3333" fill="white" transform="translate(0.250122)"/>
</clipPath>
</defs>
</svg>
