<svg width="20" height="21" viewBox="0 0 20 21" fill="none" xmlns="http://www.w3.org/2000/svg">
<circle cx="10" cy="10.4485" r="10" fill="#142C58"/>
<g clip-path="url(#clip0_1_938)">
<path d="M10.0038 5.86231C8.41456 5.86231 6.82647 6.32897 5.45326 7.2629H2.85742L4.02587 8.53373C3.4935 9.01878 3.12029 9.65352 2.95528 10.3546C2.79027 11.0556 2.84118 11.7902 3.10131 12.4618C3.36144 13.1333 3.81864 13.7105 4.41283 14.1175C5.00703 14.5245 5.71043 14.7422 6.43064 14.7421C7.33053 14.7428 8.19727 14.4025 8.85623 13.7897L10.0003 15.0349L11.1443 13.7909C11.8029 14.4031 12.669 14.743 13.5681 14.7421C14.5151 14.7421 15.4234 14.366 16.0931 13.6964C16.7628 13.0269 17.1392 12.1188 17.1396 11.1718C17.1401 10.6752 17.0368 10.1839 16.8362 9.72957C16.6355 9.27524 16.3421 8.86791 15.9747 8.53373L17.1431 7.2629H14.5539C13.2123 6.34964 11.6268 5.86158 10.0038 5.86231ZM10.0003 7.02897C10.9116 7.02897 11.8235 7.20933 12.6812 7.56647C11.1568 8.14981 10.0003 9.51409 10.0003 11.1034C10.0003 9.5135 8.84433 8.14981 7.31933 7.56647C8.16881 7.21242 9.07996 7.02935 10.0003 7.02897ZM6.43004 8.75635C6.74732 8.75635 7.0615 8.81885 7.35463 8.94027C7.64776 9.06168 7.91411 9.23965 8.13846 9.464C8.36281 9.68836 8.54078 9.9547 8.6622 10.2478C8.78362 10.541 8.84611 10.8551 8.84611 11.1724C8.84611 11.4897 8.78362 11.8039 8.6622 12.097C8.54078 12.3901 8.36281 12.6565 8.13846 12.8808C7.91411 13.1052 7.64776 13.2832 7.35463 13.4046C7.0615 13.526 6.74732 13.5885 6.43004 13.5885C5.78926 13.5885 5.17472 13.3339 4.72162 12.8808C4.26852 12.4277 4.01397 11.8132 4.01397 11.1724C4.01397 10.5316 4.26852 9.91711 4.72162 9.464C5.17472 9.0109 5.78926 8.75635 6.43004 8.75635ZM13.5681 8.75754C13.8853 8.75743 14.1994 8.81978 14.4925 8.94105C14.7855 9.06231 15.0518 9.24011 15.2762 9.4643C15.5005 9.68849 15.6785 9.95467 15.8 10.2476C15.9215 10.5406 15.9841 10.8547 15.9842 11.1718C15.9843 11.489 15.922 11.8031 15.8007 12.0961C15.6794 12.3892 15.5016 12.6555 15.2774 12.8799C15.0533 13.1042 14.7871 13.2822 14.4941 13.4037C14.2011 13.5252 13.8871 13.5878 13.5699 13.5879C12.9294 13.5881 12.315 13.3339 11.8619 12.8811C11.4088 12.4284 11.1541 11.8142 11.1539 11.1736C11.1536 10.5331 11.4078 9.91866 11.8606 9.46556C12.3134 9.01246 12.9276 8.75778 13.5681 8.75754ZM6.43004 9.90635C6.0941 9.90635 5.77192 10.0398 5.53437 10.2774C5.29683 10.5149 5.16337 10.8371 5.16337 11.173C5.16337 11.509 5.29683 11.8311 5.53437 12.0687C5.77192 12.3062 6.0941 12.4397 6.43004 12.4397C6.76598 12.4397 7.08816 12.3062 7.32571 12.0687C7.56326 11.8311 7.69671 11.509 7.69671 11.173C7.69671 10.8371 7.56326 10.5149 7.32571 10.2774C7.08816 10.0398 6.76598 9.90635 6.43004 9.90635ZM13.5681 9.90635C13.2322 9.90635 12.91 10.0398 12.6725 10.2774C12.4349 10.5149 12.3015 10.8371 12.3015 11.173C12.3015 11.509 12.4349 11.8311 12.6725 12.0687C12.91 12.3062 13.2322 12.4397 13.5681 12.4397C13.9041 12.4397 14.2263 12.3062 14.4638 12.0687C14.7014 11.8311 14.8348 11.509 14.8348 11.173C14.8348 10.8371 14.7014 10.5149 14.4638 10.2774C14.2263 10.0398 13.9041 9.90635 13.5681 9.90635Z" fill="white"/>
</g>
<defs>
<clipPath id="clip0_1_938">
<rect width="14.2857" height="14.2857" fill="white" transform="translate(2.85742 3.30566)"/>
</clipPath>
</defs>
</svg>
