<svg width="28" height="18" viewBox="0 0 28 18" fill="none" xmlns="http://www.w3.org/2000/svg">
<g clip-path="url(#clip0_1_1075)">
<path d="M24.8501 5.58352L27.0371 3.39651H22.2925C21.4467 2.78326 18.373 0.795898 14.0447 0.795898C8.92681 0.795898 5.73046 3.39651 5.73046 3.39651H0.870636L3.09268 5.61909C1.77379 6.81799 0.94497 8.54624 0.94497 10.4646C0.94497 14.0761 3.88327 17.0144 7.49483 17.0144C9.15937 17.0144 10.6811 16.39 11.838 15.3632L13.9374 17.4626L16.0878 15.3127C17.2516 16.3693 18.7957 17.0144 20.4873 17.0144C24.0988 17.0144 27.0371 14.0761 27.0371 10.4646C27.0371 8.52766 26.1919 6.784 24.8501 5.58352ZM11.7626 11.5477C11.5322 12.4599 11.0177 13.2579 10.3174 13.8436C9.55334 14.4828 8.56842 14.8673 7.49483 14.8673C5.06305 14.8673 3.09268 12.8964 3.09268 10.4651C3.09268 8.03387 5.06359 6.06297 7.49483 6.06297C9.92607 6.06297 11.897 8.03387 11.897 10.4651C11.897 10.8389 11.8502 11.2015 11.7626 11.5483V11.5477ZM14.016 9.45152C14.0065 9.5094 13.998 9.56727 13.9911 9.6262C13.981 9.54762 13.9698 9.46957 13.9565 9.39205C13.5169 6.73197 11.4674 4.60762 8.84611 4.0549C9.31494 3.83137 9.89474 3.59456 10.5696 3.39651C11.4839 3.12785 12.5718 2.93034 13.7935 2.93034C15.4406 2.93034 16.6341 3.14856 17.4577 3.39651C18.5323 3.71933 18.9773 4.091 18.9773 4.091C16.4122 4.69735 14.4254 6.81745 14.0149 9.45205L14.016 9.45152ZM20.4873 14.8667C19.3856 14.8667 18.3783 14.4621 17.6058 13.7937C16.9729 13.2452 16.4982 12.5194 16.2588 11.6943C16.1457 11.304 16.0846 10.8909 16.0846 10.4646C16.0846 8.03281 18.0555 6.06244 20.4868 6.06244C22.918 6.06244 24.8889 8.03334 24.8889 10.4646C24.8889 12.8958 22.918 14.8667 20.4868 14.8667H20.4873Z" fill="white"/>
<path d="M7.49482 12.7549C8.75985 12.7549 9.78536 11.7294 9.78536 10.4644C9.78536 9.19934 8.75985 8.17383 7.49482 8.17383C6.22979 8.17383 5.20428 9.19934 5.20428 10.4644C5.20428 11.7294 6.22979 12.7549 7.49482 12.7549Z" fill="white"/>
<path d="M20.4873 12.7549C21.7523 12.7549 22.7778 11.7294 22.7778 10.4644C22.7778 9.19934 21.7523 8.17383 20.4873 8.17383C19.2223 8.17383 18.1967 9.19934 18.1967 10.4644C18.1967 11.7294 19.2223 12.7549 20.4873 12.7549Z" fill="white"/>
</g>
<defs>
<clipPath id="clip0_1_1075">
<rect width="26.1665" height="16.6667" fill="white" transform="translate(0.870636 0.795898)"/>
</clipPath>
</defs>
</svg>
