<svg width="28" height="29" viewBox="0 0 28 29" fill="none" xmlns="http://www.w3.org/2000/svg">
<rect y="0.448486" width="28" height="28" rx="14" fill="#142C58"/>
<g clip-path="url(#clip0_2001_354)">
<path d="M21.8562 11.9666L23.3871 10.4357H20.0659C19.4738 10.0064 17.3222 8.61523 14.2924 8.61523C10.7099 8.61523 8.47244 10.4357 8.47244 10.4357H5.07056L6.62599 11.9915C5.70276 12.8307 5.12259 14.0405 5.12259 15.3833C5.12259 17.9114 7.1794 19.9682 9.70749 19.9682C10.8727 19.9682 11.9379 19.5311 12.7477 18.8123L14.2173 20.2819L15.7226 18.777C16.5373 19.5166 17.6181 19.9682 18.8022 19.9682C21.3303 19.9682 23.3871 17.9114 23.3871 15.3833C23.3871 14.0275 22.7954 12.8069 21.8562 11.9666ZM12.695 16.1415C12.5337 16.78 12.1735 17.3387 11.6833 17.7486C11.1484 18.1961 10.459 18.4652 9.70749 18.4652C8.00525 18.4652 6.62599 17.0856 6.62599 15.3837C6.62599 13.6818 8.00562 12.3022 9.70749 12.3022C11.4094 12.3022 12.789 13.6818 12.789 15.3837C12.789 15.6453 12.7563 15.8992 12.695 16.1419V16.1415ZM14.2723 14.6742C14.2656 14.7147 14.2597 14.7552 14.2549 14.7964C14.2478 14.7414 14.24 14.6868 14.2307 14.6325C13.923 12.7705 12.4883 11.2834 10.6534 10.8965C10.9816 10.7401 11.3874 10.5743 11.8598 10.4357C12.4998 10.2476 13.2614 10.1093 14.1166 10.1093C15.2695 10.1093 16.105 10.2621 16.6815 10.4357C17.4337 10.6616 17.7452 10.9218 17.7452 10.9218C15.9497 11.3463 14.5589 12.8303 14.2716 14.6745L14.2723 14.6742ZM18.8022 18.4648C18.031 18.4648 17.3259 18.1816 16.7852 17.7137C16.3421 17.3297 16.0099 16.8217 15.8422 16.2441C15.7631 15.9709 15.7203 15.6818 15.7203 15.3833C15.7203 13.6811 17.1 12.3018 18.8018 12.3018C20.5037 12.3018 21.8833 13.6814 21.8833 15.3833C21.8833 17.0852 20.5037 18.4648 18.8018 18.4648H18.8022Z" fill="white"/>
<path d="M9.70749 16.9868C10.593 16.9868 11.3109 16.2689 11.3109 15.3834C11.3109 14.4979 10.593 13.78 9.70749 13.78C8.82197 13.78 8.10411 14.4979 8.10411 15.3834C8.10411 16.2689 8.82197 16.9868 9.70749 16.9868Z" fill="white"/>
<path d="M18.8022 16.9868C19.6877 16.9868 20.4056 16.2689 20.4056 15.3834C20.4056 14.4979 19.6877 13.78 18.8022 13.78C17.9167 13.78 17.1988 14.4979 17.1988 15.3834C17.1988 16.2689 17.9167 16.9868 18.8022 16.9868Z" fill="white"/>
</g>
<defs>
<clipPath id="clip0_2001_354">
<rect width="18.3166" height="11.6667" fill="white" transform="translate(5.07056 8.61523)"/>
</clipPath>
</defs>
</svg>
