<svg width="27" height="17" viewBox="0 0 27 17" fill="none" xmlns="http://www.w3.org/2000/svg">
<g clip-path="url(#clip0_1_299)">
<path d="M24.813 5.12093L27 2.93393H22.2554C21.4096 2.32068 18.3359 0.333313 14.0075 0.333313C8.88967 0.333313 5.69332 2.93393 5.69332 2.93393H0.833496L3.05554 5.1565C1.73665 6.3554 0.90783 8.08366 0.90783 10.002C0.90783 13.6136 3.84613 16.5519 7.45769 16.5519C9.12223 16.5519 10.6439 15.9275 11.8009 14.9006L13.9003 17L16.0507 14.8501C17.2145 15.9067 18.7585 16.5519 20.4501 16.5519C24.0617 16.5519 27 13.6136 27 10.002C27 8.06507 26.1547 6.32142 24.813 5.12093ZM11.7255 11.0851C11.4951 11.9973 10.9806 12.7953 10.2802 13.381C9.5162 14.0203 8.53128 14.4047 7.45769 14.4047C5.02591 14.4047 3.05554 12.4338 3.05554 10.0025C3.05554 7.57129 5.02645 5.60038 7.45769 5.60038C9.88893 5.60038 11.8598 7.57129 11.8598 10.0025C11.8598 10.3763 11.8131 10.739 11.7255 11.0857V11.0851ZM13.9789 8.98894C13.9693 9.04681 13.9608 9.10468 13.9539 9.16362C13.9438 9.08504 13.9327 9.00699 13.9194 8.92947C13.4798 6.26939 11.4303 4.14504 8.80897 3.59231C9.2778 3.36878 9.8576 3.13197 10.5324 2.93393C11.4467 2.66527 12.5347 2.46775 13.7564 2.46775C15.4034 2.46775 16.597 2.68597 17.4205 2.93393C18.4952 3.25675 18.9401 3.62842 18.9401 3.62842C16.3751 4.23477 14.3882 6.35487 13.9778 8.98947L13.9789 8.98894ZM20.4501 14.4041C19.3484 14.4041 18.3412 13.9996 17.5687 13.3311C16.9358 12.7826 16.4611 12.0568 16.2216 11.2317C16.1085 10.8414 16.0475 10.4284 16.0475 10.002C16.0475 7.57023 18.0184 5.59985 20.4496 5.59985C22.8809 5.59985 24.8518 7.57076 24.8518 10.002C24.8518 12.4332 22.8809 14.4041 20.4496 14.4041H20.4501Z" fill="#FFDA1D"/>
<path d="M7.45765 12.2926C8.72268 12.2926 9.74819 11.2671 9.74819 10.002C9.74819 8.737 8.72268 7.71149 7.45765 7.71149C6.19262 7.71149 5.16711 8.737 5.16711 10.002C5.16711 11.2671 6.19262 12.2926 7.45765 12.2926Z" fill="#FFDA1D"/>
<path d="M20.4502 12.2926C21.7152 12.2926 22.7407 11.2671 22.7407 10.002C22.7407 8.737 21.7152 7.71149 20.4502 7.71149C19.1852 7.71149 18.1597 8.737 18.1597 10.002C18.1597 11.2671 19.1852 12.2926 20.4502 12.2926Z" fill="#FFDA1D"/>
</g>
<defs>
<clipPath id="clip0_1_299">
<rect width="26.1665" height="16.6667" fill="white" transform="translate(0.833496 0.333313)"/>
</clipPath>
</defs>
</svg>
