<svg width="180" height="41" viewBox="0 0 180 41" fill="none" xmlns="http://www.w3.org/2000/svg">
<path d="M126.168 21.416C127.189 21.0076 128.016 20.2253 128.48 19.2285C128.742 18.6616 128.883 18.0462 128.893 17.4217C128.904 16.7973 128.783 16.1776 128.54 15.6024C127.721 13.7053 126.49 12.014 124.938 10.6507C124.141 9.93767 123.112 9.53841 122.043 9.52721C121.415 9.51977 120.793 9.65127 120.221 9.91229C119.65 10.1733 119.143 10.5574 118.738 11.0371V4.91434C118.739 4.33779 118.627 3.76662 118.407 3.23366C118.187 2.7007 117.864 2.21646 117.456 1.80878C117.048 1.4011 116.564 1.07801 116.031 0.858104C115.498 0.638193 114.927 0.525791 114.351 0.52736C112.955 0.605648 111.572 0.832826 110.225 1.20502C108.999 1.53398 107.805 1.97369 106.659 2.51874C106.112 2.77941 105.625 3.15046 105.229 3.60851C104.833 4.06656 104.535 4.60169 104.356 5.18021C104.177 5.75873 104.119 6.36809 104.187 6.96994C104.255 7.57178 104.447 8.15305 104.75 8.67716L107.83 14.0271C107.363 13.867 106.873 13.7847 106.379 13.7834C105.462 13.7807 104.567 14.0662 103.82 14.5994C103.073 15.1327 102.513 15.8869 102.218 16.7556V16.8151C101.68 16.3401 101.08 15.9401 100.435 15.6262C99.3055 15.0895 98.0708 14.8113 96.8205 14.8118C95.9121 14.8089 95.0097 14.9597 94.1515 15.2576C93.41 14.8855 92.5832 14.7164 91.7552 14.7676C90.9272 14.8187 90.1275 15.0883 89.4375 15.5489V15.1447C89.4375 13.8976 88.9422 12.7016 88.0603 11.8198C87.1785 10.938 85.9826 10.4427 84.7355 10.4427C83.4885 10.4427 82.2925 10.938 81.4107 11.8198C80.5289 12.7016 80.0335 13.8976 80.0335 15.1447V17.1182C78.4435 15.6636 76.3629 14.8632 74.2079 14.8772C72.3185 14.887 70.484 15.5131 68.9828 16.6605C68.4441 15.9856 67.7317 15.4701 66.9222 15.1693C66.1127 14.8686 65.2366 14.794 64.3879 14.9534C63.5392 15.1129 62.7499 15.5005 62.1048 16.0746C61.4596 16.6487 60.983 17.3876 60.726 18.212V18.3131L60.3456 17.5343C60.0765 16.9702 59.6978 16.4652 59.2315 16.0489C58.7653 15.6326 58.2208 15.3134 57.6298 15.1097C57.0388 14.9061 56.4133 14.8222 55.7895 14.8629C55.1658 14.9036 54.5564 15.0681 53.9969 15.3468C52.8674 15.9011 52.0036 16.8805 51.5947 18.0705C51.1858 19.2604 51.2651 20.5639 51.8153 21.6954L55.9824 30.3327C55.3583 30.6214 54.8056 31.0443 54.3638 31.5713C53.922 32.0982 53.602 32.7162 53.4265 33.3811C53.2511 34.0459 53.2245 34.7413 53.3488 35.4177C53.4731 36.094 53.7452 36.7345 54.1455 37.2936C54.8054 38.1852 56.0953 39.2671 58.5147 39.3206H58.7703C62.1408 39.3206 64.6137 37.6503 65.541 34.7315C65.8442 33.7864 66.2068 32.6391 66.6229 31.3135V31.3551C68.103 34.1371 70.7602 35.6826 74.1247 35.6826C77.4893 35.6826 79.5282 34.4938 80.6636 33.4119C80.9939 33.9498 81.4294 34.4155 81.944 34.7812C82.4585 35.1468 83.0416 35.4047 83.6583 35.5396C84.275 35.6745 84.9125 35.6835 85.5327 35.5661C86.153 35.4487 86.7431 35.2073 87.2678 34.8564V35.2547C87.2846 36.4625 87.765 37.6177 88.6096 38.4813C89.4543 39.3448 90.5986 39.8507 91.8057 39.8942C93.0129 39.9378 94.1906 39.5156 95.0953 38.7151C95.9999 37.9146 96.5623 36.797 96.666 35.5935C97.516 35.5935 100.429 35.4151 102.456 33.2573L102.486 33.2217C102.858 32.84 103.189 32.4195 103.472 31.9674C104.028 32.2374 104.638 32.3777 105.256 32.3776C105.758 32.3765 106.255 32.2838 106.724 32.1041C106.975 32.4015 107.265 32.6635 107.586 32.8828C109.296 34.0446 111.24 34.8177 113.281 35.1477C113.858 35.2431 114.448 35.2227 115.017 35.0875C115.586 34.9523 116.123 34.7052 116.595 34.3604C117.068 34.0157 117.467 33.5803 117.77 33.0796C118.072 32.5789 118.272 32.023 118.357 31.4443C118.766 31.9681 119.289 32.3914 119.887 32.682C120.484 32.9725 121.14 33.1226 121.805 33.1206C122.816 33.1142 123.795 32.7594 124.575 32.116C126.161 30.8021 127.443 29.1592 128.332 27.301C128.582 26.7734 128.724 26.2013 128.75 25.6182C128.777 25.035 128.686 24.4524 128.485 23.9045C128.283 23.3566 127.975 22.8543 127.577 22.427C127.179 21.9998 126.7 21.6561 126.168 21.416ZM121.781 32.9066C121.068 32.9118 120.365 32.7336 119.741 32.3891C119.116 32.0445 118.59 31.5452 118.214 30.939L118.143 30.8201V30.9628C118.109 32.0435 117.656 33.0686 116.879 33.8209C116.102 34.5732 115.063 34.9936 113.982 34.9931C113.749 34.994 113.516 34.9741 113.287 34.9337C111.291 34.6029 109.391 33.8445 107.717 32.7104C107.369 32.4701 107.06 32.1773 106.801 31.8426C106.262 32.078 105.677 32.1864 105.089 32.1596C104.502 32.1329 103.928 31.9715 103.413 31.688C103.105 32.2028 102.738 32.6797 102.319 33.1087C100.328 35.2309 97.4506 35.3795 96.6779 35.3795H96.4757C96.46 36.5698 95.972 37.7051 95.1192 38.5356C94.2664 39.3661 93.1186 39.8238 91.9283 39.8081C90.738 39.7923 89.6027 39.3043 88.7721 38.4515C87.9416 37.5987 87.4839 36.4509 87.4997 35.2606V34.4046C86.986 34.8177 86.3878 35.1127 85.7473 35.2687C85.1069 35.4248 84.44 35.438 83.7939 35.3075C83.1478 35.1771 82.5383 34.9061 82.0087 34.5138C81.479 34.1214 81.0421 33.6174 80.729 33.0374C79.3855 34.3987 77.2158 35.4151 74.1247 35.4151C70.8434 35.4151 68.2516 33.9409 66.8369 31.2541C66.7477 31.0817 66.6645 30.9033 66.5813 30.725C66.1414 32.1338 65.7134 33.501 65.3389 34.6602C64.4353 37.4838 62.0457 39.1007 58.8 39.1007H58.5503C56.2201 39.0472 54.9837 38.0188 54.3476 37.1628C53.9502 36.6244 53.6814 36.0021 53.5619 35.3436C53.4424 34.6852 53.4753 34.0081 53.6581 33.3643C53.8349 32.7083 54.1638 32.1032 54.6183 31.5982C55.0727 31.0931 55.6399 30.7023 56.2736 30.4575L51.9758 21.6479C51.4489 20.5671 51.3726 19.3213 51.7639 18.1843C52.1551 17.0473 52.9819 16.1122 54.0623 15.5846C54.5967 15.3196 55.1784 15.1634 55.7737 15.125C56.369 15.0866 56.9659 15.1668 57.5299 15.3609C58.094 15.555 58.6139 15.8591 59.0594 16.2557C59.505 16.6523 59.8674 17.1334 60.1256 17.6711L60.7201 18.9372L60.9103 18.3428C61.1927 17.4162 61.7661 16.6054 62.5457 16.0304C63.3252 15.4554 64.2692 15.1469 65.2378 15.1506C65.6931 15.1524 66.1456 15.2204 66.5813 15.3527C67.5248 15.6425 68.3461 16.236 68.9174 17.041C70.4061 15.8273 72.2635 15.1565 74.1842 15.1387C75.2989 15.1289 76.404 15.3451 77.4328 15.7742C78.4616 16.2033 79.3928 16.8365 80.1702 17.6354V15.1328C80.1702 13.9425 80.643 12.8009 81.4847 11.9593C82.3264 11.1176 83.4679 10.6448 84.6582 10.6448C85.8485 10.6448 86.9901 11.1176 87.8318 11.9593C88.6734 12.8009 89.1463 13.9425 89.1463 15.1328V15.9591C89.8291 15.4075 90.6586 15.0679 91.5322 14.9823C92.4058 14.8968 93.2854 15.0689 94.0623 15.4776C94.9226 15.17 95.8296 15.0131 96.7432 15.0139C97.9622 15.014 99.166 15.284 100.268 15.8045C101.004 16.1509 101.679 16.6147 102.266 17.1777C102.307 17.0528 102.343 16.928 102.384 16.8032C102.573 16.2257 102.886 15.6966 103.301 15.2529C103.717 14.8093 104.224 14.462 104.788 14.2354C105.351 14.0088 105.958 13.9084 106.564 13.9412C107.171 13.974 107.763 14.1393 108.299 14.4254L104.899 8.53449C104.613 8.0355 104.433 7.4826 104.372 6.91069C104.31 6.33879 104.367 5.76031 104.541 5.21177C104.714 4.66323 104.999 4.15655 105.378 3.72372C105.756 3.29089 106.221 2.94132 106.742 2.69707C107.888 2.15302 109.082 1.71526 110.308 1.3893C111.624 1.03483 112.973 0.817686 114.333 0.741359C115.436 0.741359 116.495 1.17976 117.275 1.96011C118.055 2.74047 118.494 3.79886 118.494 4.90245V11.7207C118.863 11.119 119.38 10.6224 119.996 10.2788C120.613 9.93519 121.307 9.75619 122.013 9.75904C123.028 9.76194 124.007 10.1314 124.771 10.7993C126.305 12.1437 127.523 13.8101 128.338 15.6797C128.586 16.2362 128.709 16.8405 128.698 17.4497C128.687 18.059 128.542 18.6584 128.274 19.2055C128.006 19.7527 127.62 20.2343 127.146 20.6163C126.671 20.9982 126.118 21.2712 125.526 21.416L125.663 21.4636C126.229 21.6453 126.75 21.9463 127.19 22.3463C127.63 22.7463 127.98 23.236 128.215 23.7824C128.45 24.3289 128.565 24.9193 128.552 25.514C128.539 26.1086 128.399 26.6937 128.142 27.2297C127.265 29.0635 126.001 30.6858 124.438 31.9852C123.685 32.5888 122.746 32.9142 121.781 32.9066Z" fill="#D13E3E"/>
<path d="M91.9875 40.2242C90.6824 40.2231 89.4294 39.7123 88.4955 38.8006C87.5617 37.8889 87.0208 36.6486 86.9883 35.3439C85.9236 35.9031 84.6925 36.0583 83.5224 35.7808C82.3522 35.5032 81.322 34.8118 80.6218 33.834C79.4329 34.8505 77.3821 35.9502 74.1245 35.9502C70.867 35.9502 68.2633 34.577 66.7059 32.0685C66.373 33.1266 66.0758 34.0539 65.8261 34.8386C64.8275 37.9654 62.1584 39.7249 58.5086 39.6298C55.9703 39.5704 54.6031 38.4409 53.9076 37.4839C53.496 36.9099 53.2113 36.2548 53.0724 35.5623C52.9336 34.8697 52.9438 34.1556 53.1024 33.4673C53.261 32.779 53.5643 32.1323 53.9921 31.5703C54.42 31.0084 54.9626 30.5439 55.5839 30.2079L51.5179 21.8857C51.2248 21.29 51.0522 20.6422 51.0101 19.9796C50.9681 19.317 51.0573 18.6526 51.2727 18.0246C51.4881 17.3966 51.8255 16.8173 52.2654 16.32C52.7053 15.8227 53.2392 15.4173 53.8362 15.1269C54.4312 14.8312 55.0791 14.6568 55.7421 14.6141C56.4052 14.5714 57.0701 14.6611 57.6981 14.878C58.3261 15.0949 58.9046 15.4346 59.4 15.8774C59.8953 16.3202 60.2975 16.8572 60.5832 17.4571L60.6485 17.5998C60.9934 16.8305 61.5253 16.1597 62.1958 15.6486C62.8663 15.1375 63.6539 14.8023 64.4871 14.6734C65.3203 14.5446 66.1724 14.6263 66.9659 14.9111C67.7594 15.1959 68.4691 15.6747 69.0302 16.3039C70.5376 15.2133 72.3472 14.6191 74.2078 14.6038C76.1899 14.5913 78.1185 15.2467 79.6826 16.4644V15.1329C79.6748 14.4763 79.7963 13.8247 80.0404 13.2152C80.2844 12.6057 80.6461 12.0502 81.1048 11.5804C81.5635 11.1107 82.1102 10.7359 82.7138 10.4774C83.3173 10.219 83.9659 10.082 84.6224 10.0742C85.9483 10.0584 87.2261 10.57 88.1748 11.4964C89.1235 12.4228 89.6653 13.6881 89.6811 15.014C90.3662 14.664 91.1219 14.4741 91.8911 14.4587C92.6603 14.4432 93.4229 14.6026 94.1216 14.9248C96.2289 14.2565 98.5107 14.4072 100.512 15.3469C101.061 15.6042 101.58 15.9233 102.057 16.298C102.416 15.4522 103.016 14.731 103.783 14.2246C104.549 13.7181 105.448 13.4489 106.367 13.4506C106.648 13.4507 106.928 13.4746 107.205 13.5219L104.483 8.80799C104.159 8.2487 103.954 7.62839 103.881 6.9861C103.809 6.3438 103.87 5.69343 104.061 5.07589C104.252 4.45835 104.568 3.88702 104.991 3.39784C105.413 2.90866 105.932 2.51222 106.516 2.23347C107.684 1.67985 108.899 1.23223 110.148 0.895971C111.508 0.528117 112.902 0.302994 114.309 0.224252C114.93 0.223054 115.546 0.344812 116.12 0.582516C116.695 0.820221 117.217 1.16918 117.656 1.6093C118.089 2.04352 118.432 2.55899 118.666 3.12615C118.899 3.69332 119.019 4.30101 119.017 4.9144V10.3476C119.852 9.6265 120.921 9.2354 122.025 9.24788C123.173 9.25205 124.28 9.67474 125.14 10.4368C126.724 11.8283 127.981 13.554 128.819 15.4895C129.079 16.1033 129.207 16.7644 129.197 17.4307C129.187 18.097 129.038 18.7538 128.76 19.3593C128.346 20.2315 127.668 20.9511 126.822 21.4161C127.809 22.0204 128.538 22.969 128.867 24.0787C129.196 25.1885 129.103 26.3809 128.605 27.4259C127.699 29.3234 126.391 31.001 124.771 32.3419C123.88 33.0801 122.747 33.462 121.591 33.4136C120.435 33.3653 119.338 32.8903 118.512 32.0804C118.241 33.0694 117.652 33.9414 116.835 34.5607C116.018 35.18 115.019 35.5117 113.994 35.5044C113.733 35.5035 113.472 35.4817 113.215 35.439C111.143 35.0874 109.171 34.2904 107.437 33.1028C107.15 32.9059 106.887 32.6765 106.652 32.4192C105.658 32.7471 104.578 32.7091 103.609 32.3122C103.347 32.6969 103.052 33.0589 102.729 33.3941C101.192 34.9251 99.1257 35.8063 96.9571 35.8551C96.8036 37.0629 96.2147 38.1731 95.3008 38.9776C94.387 39.782 93.2109 40.2253 91.9935 40.2242H91.9875ZM87.7967 33.7805V35.225C87.7817 36.3365 88.2089 37.4084 88.9842 38.2049C89.7596 39.0014 90.8196 39.4573 91.9311 39.4723C93.0425 39.4873 94.1144 39.0601 94.9109 38.2847C95.7075 37.5094 96.1634 36.4494 96.1783 35.3379V35.0467H96.4637C96.7847 35.0467 99.959 35.1477 102.087 32.8769C102.502 32.4695 102.867 32.0146 103.175 31.5216L103.324 31.2719L103.573 31.4146C104.049 31.6746 104.578 31.8225 105.12 31.8473C105.662 31.872 106.202 31.7728 106.7 31.5573L106.908 31.4681L107.051 31.6464C107.291 31.9583 107.58 32.2293 107.907 32.4489C109.543 33.5752 111.405 34.3299 113.364 34.6603C113.908 34.7521 114.467 34.7264 115.001 34.5849C115.535 34.4433 116.032 34.1893 116.46 33.8397C116.888 33.4901 117.236 33.0531 117.481 32.5579C117.726 32.0628 117.863 31.521 117.881 30.9688L117.917 29.8572L118.512 30.8023C118.803 31.271 119.192 31.6718 119.652 31.9777C120.112 32.2837 120.632 32.4877 121.177 32.5761C121.722 32.6645 122.279 32.6353 122.812 32.4903C123.345 32.3453 123.841 32.088 124.266 31.7356C125.795 30.4705 127.033 28.8886 127.892 27.099C128.126 26.6006 128.252 26.058 128.261 25.5072C128.271 24.9564 128.162 24.41 127.944 23.9041C127.726 23.3983 127.403 22.9445 126.997 22.573C126.59 22.2015 126.109 21.9206 125.585 21.749L124.396 21.3685L125.472 21.1308C126.017 20.992 126.524 20.7368 126.96 20.3828C127.396 20.0288 127.75 19.5844 127.998 19.0803C128.245 18.5762 128.38 18.0244 128.394 17.4629C128.408 16.9015 128.299 16.3438 128.076 15.8284C127.287 14.0045 126.101 12.3798 124.605 11.0728C123.897 10.4525 122.989 10.1084 122.048 10.1039C121.393 10.0935 120.747 10.2521 120.171 10.5645C119.595 10.8769 119.11 11.3324 118.761 11.8872L118.208 12.8978V4.9144C118.212 4.40432 118.115 3.89856 117.921 3.42654C117.728 2.95452 117.443 2.52569 117.082 2.165C116.721 1.80431 116.292 1.51897 115.82 1.3256C115.348 1.13223 114.843 1.03468 114.333 1.03864C112.99 1.11323 111.659 1.32841 110.362 1.68063C109.159 2.00999 107.99 2.4477 106.866 2.98841C106.383 3.2185 105.953 3.54608 105.603 3.95053C105.253 4.35498 104.99 4.82755 104.832 5.33847C104.673 5.8494 104.622 6.38762 104.682 6.91926C104.741 7.45089 104.91 7.96444 105.178 8.42755L109.149 15.2993L108.174 14.7049C107.622 14.4219 107.011 14.2713 106.391 14.265C105.58 14.2627 104.788 14.5158 104.129 14.9884C103.469 15.4611 102.976 16.1293 102.717 16.8983C102.676 17.0232 102.634 17.148 102.598 17.2728L102.456 17.7306L102.105 17.3977C101.535 16.8501 100.878 16.4002 100.161 16.0661C98.2868 15.187 96.1434 15.074 94.187 15.7511L94.0621 15.7927L93.9432 15.7332C93.2159 15.3631 92.3978 15.209 91.5856 15.289C90.7734 15.3691 90.0012 15.68 89.3601 16.185L88.8726 16.5714V15.1329C88.8726 14.0214 88.4311 12.9554 87.6452 12.1695C86.8592 11.3836 85.7933 10.942 84.6818 10.942C83.5704 10.942 82.5044 11.3836 81.7185 12.1695C80.9325 12.9554 80.491 14.0214 80.491 15.1329V18.3547L79.9917 17.8495C79.2427 17.08 78.3457 16.47 77.3548 16.0562C76.3638 15.6425 75.2994 15.4335 74.2256 15.442C72.3708 15.4499 70.574 16.0893 69.1312 17.255L68.8875 17.4571L68.6973 17.1896C68.1631 16.4363 67.3935 15.8822 66.5097 15.6144C66.1033 15.4894 65.6807 15.4253 65.2555 15.4241C64.3514 15.4206 63.47 15.7075 62.7412 16.2426C62.0124 16.7777 61.4747 17.5327 61.2073 18.3963L60.7972 19.7338L59.852 17.79C59.6115 17.2869 59.2734 16.8367 58.8572 16.4656C58.441 16.0945 57.9551 15.8099 57.4279 15.6285C56.9006 15.447 56.3426 15.3723 55.7861 15.4086C55.2297 15.445 54.6861 15.5917 54.187 15.8402C53.6866 16.0838 53.2392 16.4236 52.8703 16.8403C52.5014 17.2569 52.2184 17.7422 52.0373 18.2684C51.8562 18.7946 51.7806 19.3513 51.8149 19.9067C51.8492 20.4622 51.9927 21.0054 52.2372 21.5053L56.6777 30.6062L56.3745 30.7191C55.7925 30.9559 55.2718 31.3214 54.8512 31.7881C54.4307 32.2549 54.1213 32.8109 53.9462 33.4143C53.7712 34.0177 53.7351 34.6529 53.8406 35.2723C53.9462 35.8916 54.1906 36.4791 54.5555 36.9905C55.15 37.793 56.3388 38.7738 58.5204 38.8095H58.7642C61.8969 38.8095 64.1914 37.2639 65.0534 34.577C65.4219 33.3882 65.8499 32.0507 66.2898 30.6418L66.5276 29.8928L66.8486 30.6062C66.9259 30.7845 67.0091 30.9509 67.0923 31.1174C68.4595 33.7032 70.9502 35.1239 74.1186 35.1239C77.5129 35.1239 79.4686 33.8697 80.5089 32.8116L80.7942 32.5262L80.9844 32.8769C81.2721 33.4229 81.6777 33.898 82.1717 34.2678C82.6657 34.6376 83.2357 34.893 83.8406 35.0153C84.4455 35.1377 85.07 35.1239 85.6688 34.9751C86.2677 34.8263 86.8261 34.5462 87.3033 34.155L87.7967 33.7805Z" fill="#242121"/>
<path fill-rule="evenodd" clip-rule="evenodd" d="M86.2692 30.9272C86.2692 31.3481 86.102 31.7518 85.8043 32.0495C85.5066 32.3471 85.1029 32.5144 84.682 32.5144C84.2611 32.5144 83.8574 32.3471 83.5597 32.0495C83.2621 31.7518 83.0948 31.3481 83.0948 30.9272V15.1329C83.0948 14.7119 83.2621 14.3082 83.5597 14.0106C83.8574 13.7129 84.2611 13.5457 84.682 13.5457C85.1029 13.5457 85.5066 13.7129 85.8043 14.0106C86.102 14.3082 86.2692 14.7119 86.2692 15.1329V30.9272Z" fill="#242121"/>
<path d="M84.6817 32.7938C84.185 32.7938 83.7084 32.5977 83.3556 32.2482C83.0027 31.8986 82.8021 31.4239 82.7974 30.9272V15.1329C82.7974 14.6331 82.9959 14.1538 83.3493 13.8005C83.7027 13.4471 84.182 13.2485 84.6817 13.2485C85.1815 13.2485 85.6608 13.4471 86.0142 13.8005C86.3676 14.1538 86.5661 14.6331 86.5661 15.1329V30.9272C86.5614 31.4239 86.3608 31.8986 86.0079 32.2482C85.6551 32.5977 85.1784 32.7938 84.6817 32.7938ZM84.6817 13.8489C84.3407 13.8489 84.0135 13.984 83.7717 14.2246C83.53 14.4653 83.3934 14.7918 83.3918 15.1329V30.9272C83.3918 31.2693 83.5277 31.5974 83.7696 31.8394C84.0115 32.0813 84.3396 32.2172 84.6817 32.2172C85.0239 32.2172 85.352 32.0813 85.5939 31.8394C85.8358 31.5974 85.9717 31.2693 85.9717 30.9272V15.1329C85.9701 14.7918 85.8335 14.4653 85.5918 14.2246C85.35 13.984 85.0228 13.8489 84.6817 13.8489Z" fill="#242121"/>
<path d="M72.5434 26.4986H78.3571C78.7944 26.4577 79.1989 26.2493 79.4859 25.9168C79.7729 25.5844 79.9201 25.1538 79.8967 24.7153C79.8996 24.6876 79.8996 24.6597 79.8967 24.632C79.6173 18.8481 75.902 18.0099 74.2138 18.0099C72.5256 18.0099 68.4834 19.0383 68.4834 25.488C68.4834 27.9074 69.0362 32.5381 74.1247 32.5381C78.5176 32.5381 79.5044 29.9939 79.5044 29.3519C79.5044 28.3948 78.7078 27.5686 77.8102 27.8896C77.079 28.1333 76.0804 29.5897 74.4694 29.5897C74.1286 29.5985 73.7895 29.5385 73.4724 29.4134C73.1553 29.2883 72.8666 29.1006 72.6236 28.8615C72.3806 28.6224 72.1883 28.3367 72.0581 28.0217C71.9279 27.7066 71.8625 27.3685 71.8658 27.0276C71.8658 26.6591 72.056 26.5164 72.5434 26.4986ZM71.8539 23.6631C71.8382 23.3276 71.892 22.9924 72.0119 22.6787C72.1319 22.3649 72.3154 22.0793 72.5509 21.8399C72.7865 21.6004 73.069 21.4122 73.3807 21.2871C73.6925 21.162 74.0267 21.1027 74.3624 21.1129C75.1174 21.1129 76.7818 21.4755 76.871 23.6988C76.871 23.8176 76.8056 23.889 76.7342 23.889H71.9787C71.9133 23.889 71.8479 23.7939 71.8539 23.6631Z" fill="#242121"/>
<path d="M74.1245 32.8353C71.4554 32.8353 68.2633 31.5572 68.1801 25.4939C68.1801 22.6049 68.9588 20.459 70.4865 19.1155C71.5195 18.2239 72.8371 17.7306 74.2018 17.7245C79.5517 17.7245 80.1462 23.4787 80.1818 24.632V24.7152C80.2074 25.2243 80.0367 25.7239 79.7049 26.111C79.3732 26.498 78.9056 26.7431 78.3985 26.7957H72.567C72.1807 26.7957 72.1806 26.8849 72.1806 27.0276C72.1773 27.3294 72.235 27.6289 72.3503 27.9079C72.4655 28.1869 72.636 28.4398 72.8514 28.6513C73.0668 28.8628 73.3227 29.0287 73.6038 29.1388C73.8849 29.249 74.1853 29.3012 74.4871 29.2924C75.3585 29.2095 76.1749 28.8297 76.7995 28.2164C77.0762 27.9689 77.3914 27.7681 77.7327 27.622C77.9544 27.545 78.1915 27.5232 78.4235 27.5584C78.6555 27.5936 78.8755 27.6848 79.0643 27.8241C79.3016 28.0053 79.4935 28.2393 79.6245 28.5076C79.7556 28.7759 79.8222 29.0711 79.8192 29.3697C79.8014 30.0414 78.8027 32.8353 74.1245 32.8353ZM74.2077 18.319C73.3041 18.319 68.7804 18.6638 68.7804 25.488C68.8399 29.9641 70.6351 32.2408 74.1304 32.2408C78.3272 32.2408 79.2129 29.8214 79.2129 29.3518C79.2171 29.1468 79.173 28.9437 79.0842 28.7588C78.9954 28.574 78.8643 28.4126 78.7017 28.2878C78.5898 28.2046 78.4591 28.1503 78.3212 28.1296C78.1833 28.1089 78.0425 28.1224 77.9111 28.1689C77.637 28.3035 77.3829 28.4756 77.1561 28.6801C76.4289 29.3776 75.4803 29.7983 74.4752 29.869C74.0945 29.8811 73.7153 29.8158 73.3606 29.6769C73.0059 29.5381 72.6831 29.3286 72.4118 29.0612C72.1406 28.7938 71.9264 28.4741 71.7825 28.1214C71.6385 27.7688 71.5677 27.3906 71.5743 27.0097C71.5747 26.8893 71.601 26.7704 71.6514 26.6611C71.7019 26.5517 71.7753 26.4546 71.8667 26.3762C71.9581 26.2978 72.0653 26.24 72.181 26.2067C72.2967 26.1735 72.4182 26.1655 72.5373 26.1835H78.3391C78.6985 26.1487 79.0308 25.9767 79.2666 25.7032C79.5024 25.4298 79.6237 25.0758 79.6052 24.7152L79.8965 24.626H79.5993C79.308 18.7767 75.3966 18.319 74.2077 18.319ZM76.7341 24.1861H71.9785C71.9226 24.1861 71.8674 24.1744 71.8162 24.1519C71.7651 24.1294 71.7191 24.0965 71.6813 24.0554C71.6326 24.0006 71.5954 23.9366 71.5719 23.8671C71.5484 23.7977 71.5391 23.7242 71.5446 23.6511C71.5305 23.2768 71.5937 22.9035 71.7301 22.5547C71.8666 22.2058 72.0734 21.8887 72.3378 21.6233C72.6021 21.3578 72.9183 21.1497 73.2666 21.0117C73.6149 20.8738 73.9878 20.8091 74.3622 20.8216C75.6046 20.8216 77.0788 21.5765 77.168 23.6927C77.1737 23.754 77.1669 23.8158 77.1478 23.8743C77.1288 23.9328 77.0981 23.9868 77.0574 24.033C77.0168 24.0792 76.9672 24.1166 76.9116 24.1429C76.856 24.1693 76.7956 24.184 76.7341 24.1861ZM72.1569 23.5917H76.5676C76.5676 23.0068 76.3353 22.4458 75.9217 22.0322C75.5081 21.6187 74.9472 21.3863 74.3622 21.3863C73.7773 21.3863 73.2164 21.6187 72.8028 22.0322C72.3892 22.4458 72.1569 23.0068 72.1569 23.5917Z" fill="#242121"/>
<path d="M59.5369 30.523L54.5852 20.3759C54.396 19.9873 54.3689 19.5394 54.51 19.1309C54.651 18.7223 54.9485 18.3865 55.3372 18.1973C55.7258 18.0081 56.1736 17.981 56.5822 18.1221C56.9908 18.2631 57.3266 18.5606 57.5158 18.9492L61.3499 26.8018L63.7277 19.1811C63.7838 18.9687 63.8823 18.7699 64.0172 18.5966C64.1522 18.4232 64.3208 18.279 64.5129 18.1725C64.705 18.0661 64.9167 17.9995 65.1352 17.977C65.3537 17.9544 65.5745 17.9763 65.7844 18.0413C65.9942 18.1063 66.1887 18.2131 66.3562 18.3552C66.5237 18.4973 66.6607 18.6718 66.759 18.8683C66.8573 19.0647 66.9149 19.279 66.9282 19.4982C66.9415 19.7175 66.9104 19.9372 66.8366 20.1441C66.8366 20.1441 64.1854 28.817 62.5923 33.8162C62.0454 35.451 60.6604 36.2772 58.5917 36.2178C56.5231 36.1583 56.214 34.9576 56.4517 34.161C56.5559 33.8018 56.7836 33.4909 57.0946 33.2831C57.4057 33.0754 57.7801 32.9842 58.1518 33.0256C60.0006 33.0375 60.2383 31.914 59.5369 30.523Z" fill="#242121"/>
<path d="M58.7702 36.5149H58.5919C57.3138 36.5149 56.7075 36.0156 56.4281 35.6352C56.2697 35.4133 56.1644 35.1581 56.1201 34.8891C56.0757 34.6201 56.0937 34.3446 56.1725 34.0837C56.2855 33.6605 56.5442 33.2908 56.9031 33.0396C57.2619 32.7884 57.6978 32.6719 58.1341 32.7105H58.1698C58.6454 32.7105 59.2457 32.6273 59.4835 32.2409C59.7213 31.8545 59.6202 31.3314 59.2755 30.6418L54.3178 20.5066C54.115 20.0507 54.097 19.5338 54.2677 19.0649C54.4383 18.596 54.7844 18.2116 55.2328 17.9927C55.6813 17.7739 56.1972 17.7377 56.6719 17.8917C57.1466 18.0457 57.5429 18.3779 57.7775 18.8184L61.2847 25.9993L63.4247 19.0918C63.4984 18.8499 63.6194 18.625 63.7806 18.4302C63.9419 18.2353 64.1401 18.0743 64.3639 17.9565C64.7007 17.7784 65.0827 17.7043 65.4617 17.7434C65.8406 17.7825 66.1995 17.9331 66.4928 18.1762C66.7862 18.4193 67.0008 18.7439 67.1097 19.109C67.2185 19.474 67.2166 19.8632 67.1043 20.2272C67.1043 20.3105 64.4293 28.9536 62.854 33.8994C62.3071 35.6114 60.8983 36.5149 58.7702 36.5149ZM58.1341 33.3049C57.8296 33.2662 57.5212 33.3378 57.2649 33.5068C57.0087 33.6758 56.8214 33.9311 56.7372 34.2263C56.6833 34.3996 56.6697 34.5828 56.6975 34.7621C56.7253 34.9414 56.7938 35.1119 56.8977 35.2607C57.1133 35.4896 57.3772 35.6676 57.6703 35.7818C57.9634 35.8959 58.2782 35.9433 58.5919 35.9205C60.5595 35.974 61.8018 35.225 62.2833 33.7092C63.8586 28.7872 66.5039 20.144 66.5277 20.037C66.6316 19.6996 66.5973 19.3348 66.4324 19.0226C66.2674 18.7105 65.9852 18.4767 65.6479 18.3726C65.4817 18.3199 65.3065 18.3012 65.133 18.3176C64.9594 18.3339 64.7908 18.385 64.6373 18.4677C64.4817 18.5485 64.3437 18.6595 64.2314 18.7942C64.1191 18.9289 64.0348 19.0847 63.9834 19.2523L61.4036 27.5745L57.2425 19.0443C57.0729 18.7502 56.7974 18.5319 56.4723 18.4341C56.1472 18.3364 55.797 18.3665 55.4934 18.5183C55.1897 18.6701 54.9555 18.9322 54.8387 19.251C54.7218 19.5697 54.7311 19.9211 54.8647 20.2332L59.7807 30.3922C60.2325 31.2898 60.292 32.0447 59.965 32.5738C59.6381 33.1028 59.0555 33.3049 58.146 33.3049H58.1341Z" fill="#242121"/>
<path d="M101.927 24.6084C101.927 22.5278 101.671 19.6804 99.0435 18.4321C98.3061 18.0755 97.494 17.9002 96.6751 17.9209C95.8562 17.9415 95.0541 18.1576 94.3356 18.551C94.0556 18.7087 93.7857 18.8834 93.5271 19.0741C93.4385 18.6951 93.2132 18.3621 92.8943 18.1389C92.5755 17.9157 92.1855 17.8179 91.799 17.8642C91.4126 17.9106 91.0568 18.0979 90.7998 18.3902C90.5429 18.6826 90.4027 19.0594 90.4063 19.4486V35.2251C90.393 35.4413 90.4242 35.6579 90.4978 35.8616C90.5714 36.0653 90.686 36.2518 90.8344 36.4096C90.9828 36.5674 91.1619 36.6931 91.3607 36.7791C91.5596 36.865 91.7739 36.9093 91.9905 36.9093C92.2071 36.9093 92.4214 36.865 92.6202 36.7791C92.819 36.6931 92.9982 36.5674 93.1466 36.4096C93.295 36.2518 93.4095 36.0653 93.4831 35.8616C93.5568 35.6579 93.5879 35.4413 93.5747 35.2251V31.064C94.2792 31.8612 95.2711 32.3464 96.3329 32.4134C102.355 32.5917 101.986 26.0469 101.927 24.6084ZM98.7879 25.7972C98.7879 27.0456 98.7879 29.2985 96.5112 29.2985C94.2345 29.2985 94.2583 27.0634 94.2583 25.8151V24.6678C94.2583 23.4135 94.2583 21.1665 96.5409 21.1665C98.8236 21.1665 98.8176 23.4135 98.8176 24.6678L98.7879 25.7972Z" fill="#242121"/>
<path d="M91.9877 37.1094C91.7398 37.1102 91.4941 37.062 91.2648 36.9677C91.0355 36.8733 90.827 36.7346 90.6514 36.5596C90.4758 36.3845 90.3365 36.1765 90.2414 35.9475C90.1463 35.7185 90.0974 35.473 90.0974 35.225V19.4485C90.099 18.9508 90.2974 18.4739 90.6493 18.122C91.0013 17.7701 91.4781 17.5717 91.9759 17.5701C92.3267 17.5667 92.6714 17.6625 92.9701 17.8466C93.2688 18.0307 93.5094 18.2954 93.6641 18.6104C93.8305 18.5034 94.0029 18.3964 94.1812 18.2953C94.9413 17.8762 95.7907 17.6452 96.6583 17.6214C97.526 17.5976 98.3867 17.7818 99.1686 18.1586C101.867 19.4485 102.218 22.2781 102.218 24.6023V24.7628C102.254 26.0171 102.343 29.346 100.393 31.3017C99.8499 31.8052 99.2079 32.1904 98.508 32.4329C97.8081 32.6754 97.0655 32.77 96.3272 32.7105C95.4266 32.6715 94.5639 32.3372 93.8721 31.7594V35.2012C93.8753 35.4507 93.8288 35.6983 93.7356 35.9297C93.6423 36.161 93.504 36.3716 93.3287 36.5491C93.1534 36.7266 92.9446 36.8675 92.7144 36.9637C92.4842 37.0599 92.2372 37.1094 91.9877 37.1094ZM91.9877 18.1645C91.8181 18.163 91.6499 18.195 91.4927 18.2588C91.3356 18.3227 91.1926 18.417 91.0721 18.5364C90.9516 18.6558 90.856 18.7978 90.7907 18.9544C90.7254 19.111 90.6918 19.2789 90.6919 19.4485V35.225C90.6799 35.4014 90.7042 35.5783 90.7635 35.7449C90.8227 35.9114 90.9156 36.064 91.0363 36.1932C91.1569 36.3223 91.3029 36.4253 91.465 36.4957C91.6272 36.5661 91.802 36.6025 91.9788 36.6025C92.1556 36.6025 92.3305 36.5661 92.4926 36.4957C92.6548 36.4253 92.8007 36.3223 92.9214 36.1932C93.0421 36.064 93.1349 35.9114 93.1941 35.7449C93.2534 35.5783 93.2778 35.4014 93.2658 35.225V30.2555L93.7889 30.8975C94.4483 31.6196 95.3629 32.0567 96.3391 32.1161C97.0003 32.1729 97.6662 32.0906 98.2938 31.8746C98.9213 31.6586 99.4968 31.3136 99.983 30.8618C101.766 29.0785 101.665 25.9398 101.636 24.7569V24.5845C101.636 22.4326 101.326 19.829 98.9249 18.6758C98.2307 18.3387 97.466 18.1726 96.6946 18.1912C95.9232 18.2098 95.1674 18.4126 94.4903 18.7828C94.2221 18.9375 93.9622 19.1061 93.7116 19.288L93.349 19.5615L93.242 19.1216C93.1702 18.8447 93.0076 18.5999 92.7802 18.4264C92.5528 18.2529 92.2737 18.1607 91.9877 18.1645ZM96.5114 29.6135C96.028 29.6478 95.5465 29.5236 95.14 29.2597C94.7335 28.9959 94.424 28.6067 94.2585 28.1512C94.0115 27.4004 93.9066 26.6102 93.9494 25.8209V24.6677C93.9494 23.4372 93.9494 20.8692 96.5293 20.8692C97.0148 20.8313 97.4995 20.9538 97.9086 21.218C98.3178 21.4822 98.6289 21.8734 98.7941 22.3316C99.0411 23.0803 99.1459 23.8686 99.1032 24.6558V25.815C99.0854 27.0455 99.0854 29.6135 96.5114 29.6135ZM96.5114 21.4637C94.6806 21.4637 94.526 23.0449 94.526 24.6677V25.815C94.4827 26.5387 94.5734 27.2642 94.7935 27.955C94.9149 28.3037 95.1508 28.601 95.4628 28.7985C95.7747 28.996 96.1443 29.0822 96.5114 29.0428C98.3364 29.0428 98.4909 27.4557 98.4909 25.8388V24.6677C98.5308 23.9524 98.4423 23.2356 98.2294 22.5515C98.1061 22.204 97.8699 21.908 97.5584 21.7107C97.2469 21.5135 96.8782 21.4265 96.5114 21.4637Z" fill="#242121"/>
<path fill-rule="evenodd" clip-rule="evenodd" d="M106.926 16.9935L112.46 19.6923C112.695 19.8067 112.888 19.9905 113.015 20.2188C113.142 20.4472 113.195 20.7089 113.168 20.9686C113.14 21.2282 113.034 21.4732 112.863 21.6702C112.691 21.8673 112.464 22.0069 112.21 22.07L106.266 23.5621C106.09 23.6065 105.907 23.6127 105.728 23.5801C105.55 23.5475 105.381 23.477 105.232 23.3733C105.083 23.2696 104.958 23.1351 104.866 22.979C104.773 22.8228 104.716 22.6487 104.697 22.4683C104.507 20.8657 104.678 19.2411 105.196 17.7128C105.256 17.5473 105.35 17.3961 105.472 17.2688C105.594 17.1415 105.74 17.0409 105.903 16.9733C106.066 16.9057 106.24 16.8726 106.416 16.876C106.593 16.8795 106.766 16.9195 106.926 16.9935Z" fill="#D9232E"/>
<path d="M105.927 23.889C105.541 23.8901 105.168 23.7488 104.88 23.4921C104.592 23.2355 104.408 22.8816 104.364 22.498C104.173 20.8574 104.347 19.1947 104.875 17.6296C104.947 17.4193 105.063 17.2268 105.215 17.0647C105.367 16.9026 105.551 16.7746 105.757 16.6892C105.962 16.6038 106.183 16.5629 106.405 16.5692C106.627 16.5756 106.845 16.629 107.045 16.726L112.585 19.4248C112.874 19.5665 113.112 19.7933 113.267 20.0747C113.422 20.3561 113.488 20.6784 113.454 20.998C113.42 21.3177 113.289 21.6193 113.079 21.862C112.868 22.1048 112.588 22.277 112.276 22.3554L106.332 23.8415C106.2 23.8771 106.064 23.8931 105.927 23.889ZM106.367 17.1599C106.237 17.162 106.108 17.1882 105.987 17.2372C105.859 17.2918 105.745 17.3732 105.652 17.4757C105.558 17.5783 105.488 17.6996 105.446 17.8317C104.949 19.3092 104.782 20.8778 104.958 22.4267C104.975 22.5655 105.02 22.6992 105.092 22.8191C105.163 22.939 105.26 23.0423 105.374 23.1222C105.487 23.2014 105.616 23.2551 105.751 23.2797C105.887 23.3044 106.026 23.2993 106.159 23.2649L112.139 21.7788C112.334 21.7323 112.51 21.6258 112.641 21.4744C112.772 21.323 112.852 21.1342 112.87 20.9346C112.894 20.7359 112.855 20.5347 112.758 20.3596C112.661 20.1846 112.511 20.0447 112.329 19.9598L106.795 17.2551C106.661 17.1922 106.515 17.1597 106.367 17.1599Z" fill="#D9232E"/>
<path fill-rule="evenodd" clip-rule="evenodd" d="M109.12 28.3889L113.281 23.7938C113.454 23.5988 113.684 23.4621 113.938 23.4025C114.192 23.3429 114.458 23.3633 114.7 23.4609C114.942 23.5586 115.148 23.7286 115.29 23.9478C115.432 24.167 115.502 24.4247 115.492 24.6855L115.278 30.8439C115.27 31.0233 115.223 31.1988 115.142 31.3589C115.061 31.5189 114.946 31.6598 114.806 31.7723C114.666 31.8847 114.504 31.9661 114.33 32.011C114.156 32.0559 113.975 32.0633 113.798 32.0328C112.215 31.7673 110.71 31.1586 109.387 30.2495C109.241 30.1501 109.117 30.0213 109.023 29.8712C108.929 29.7212 108.868 29.5533 108.843 29.3782C108.818 29.2031 108.829 29.0247 108.877 28.8544C108.925 28.684 109.007 28.5255 109.12 28.3889Z" fill="#D9232E"/>
<path d="M113.988 32.3835C113.901 32.3896 113.813 32.3896 113.726 32.3835C112.102 32.1046 110.557 31.478 109.197 30.5467C109.012 30.4209 108.856 30.257 108.74 30.066C108.624 29.8749 108.55 29.6612 108.524 29.4392C108.497 29.2173 108.519 28.9922 108.587 28.7792C108.654 28.5662 108.767 28.3703 108.917 28.2046L113.037 23.6333C113.251 23.3933 113.534 23.2253 113.847 23.1521C114.161 23.0789 114.489 23.1042 114.787 23.2245C115.086 23.3448 115.34 23.5542 115.515 23.8241C115.69 24.0941 115.777 24.4115 115.765 24.733L115.551 30.8914C115.546 31.1213 115.491 31.3472 115.388 31.5528C115.285 31.7584 115.138 31.9386 114.957 32.0803C114.676 32.2855 114.335 32.3921 113.988 32.3835ZM114.19 23.6868C114.055 23.6867 113.922 23.7159 113.8 23.7724C113.678 23.8288 113.57 23.9112 113.483 24.0137L109.363 28.585C109.269 28.6875 109.199 28.8091 109.157 28.9416C109.115 29.074 109.102 29.214 109.119 29.3518C109.135 29.4892 109.18 29.6216 109.251 29.7405C109.321 29.8593 109.416 29.9619 109.53 30.0414C110.82 30.9238 112.286 31.516 113.827 31.7772C113.964 31.7992 114.103 31.7919 114.237 31.7559C114.37 31.7198 114.494 31.6559 114.601 31.5682C114.708 31.4805 114.795 31.3711 114.856 31.2472C114.918 31.1234 114.952 30.9879 114.957 30.8498L115.171 24.6974C115.183 24.4982 115.132 24.3004 115.025 24.1319C114.918 23.9633 114.761 23.8326 114.576 23.7581C114.453 23.7103 114.322 23.6861 114.19 23.6868Z" fill="#D9232E"/>
<path fill-rule="evenodd" clip-rule="evenodd" d="M118.91 22.2958L124.765 24.204C124.941 24.2593 125.102 24.3521 125.239 24.476C125.375 24.5998 125.483 24.7518 125.554 24.9214C125.626 25.0909 125.66 25.2741 125.654 25.4581C125.648 25.6421 125.603 25.8227 125.52 25.9873C124.828 27.436 123.828 28.7161 122.59 29.7382C122.45 29.8536 122.288 29.9379 122.113 29.9852C121.938 30.0325 121.756 30.0418 121.577 30.0125C121.398 29.9832 121.228 29.916 121.078 29.8154C120.927 29.7147 120.8 29.583 120.705 29.4291L117.442 24.1802C117.304 23.9591 117.237 23.701 117.251 23.4407C117.264 23.1805 117.358 22.9307 117.518 22.7252C117.678 22.5196 117.897 22.3682 118.146 22.2914C118.395 22.2146 118.662 22.2162 118.91 22.2958Z" fill="#D9232E"/>
<path d="M121.781 30.2971C121.698 30.3059 121.615 30.3059 121.532 30.2971C121.311 30.261 121.101 30.1789 120.915 30.0559C120.728 29.933 120.57 29.7721 120.45 29.5838L117.186 24.3587C117.015 24.0863 116.931 23.7674 116.947 23.4458C116.964 23.1241 117.079 22.8153 117.277 22.5616C117.476 22.308 117.748 22.1217 118.056 22.0284C118.364 21.9351 118.694 21.9393 118.999 22.0404L124.855 23.9426C125.062 24.0145 125.251 24.1289 125.411 24.2785C125.571 24.4281 125.698 24.6095 125.784 24.811C125.869 25.0126 125.912 25.2299 125.909 25.4489C125.905 25.6678 125.856 25.8837 125.764 26.0826C125.062 27.5654 124.048 28.8794 122.792 29.9345C122.509 30.1718 122.151 30.3004 121.781 30.2971ZM118.506 22.5278C118.36 22.5292 118.215 22.5642 118.084 22.6301C117.953 22.6961 117.839 22.7912 117.751 22.9082C117.625 23.0634 117.551 23.2546 117.54 23.4544C117.53 23.6541 117.583 23.8521 117.692 24.0198L120.955 29.245C121.028 29.3628 121.126 29.4635 121.242 29.5403C121.357 29.6171 121.488 29.6682 121.625 29.6902C121.762 29.7122 121.902 29.7045 122.035 29.6677C122.169 29.6309 122.293 29.5658 122.4 29.4768C123.603 28.4802 124.576 27.2351 125.253 25.8269C125.312 25.7008 125.343 25.5636 125.344 25.4244C125.346 25.2852 125.317 25.1474 125.261 25.0201C125.205 24.8928 125.122 24.7791 125.018 24.6865C124.914 24.594 124.791 24.5248 124.659 24.4835L118.815 22.6051C118.717 22.5628 118.613 22.5367 118.506 22.5278Z" fill="#D9232E"/>
<path fill-rule="evenodd" clip-rule="evenodd" d="M124.866 18.5629L118.922 20.263C118.672 20.3337 118.405 20.326 118.16 20.2407C117.914 20.1555 117.7 19.9968 117.547 19.7862C117.394 19.5756 117.309 19.3232 117.304 19.063C117.299 18.8028 117.374 18.5473 117.519 18.331L121.009 13.2248C121.109 13.0749 121.24 12.9481 121.394 12.8531C121.547 12.7581 121.719 12.697 121.898 12.674C122.077 12.6509 122.259 12.6663 122.432 12.7193C122.604 12.7723 122.764 12.8615 122.899 12.9811C124.105 14.0423 125.062 15.3578 125.699 16.833C125.772 17.0001 125.808 17.1808 125.804 17.3631C125.801 17.5453 125.758 17.7246 125.679 17.8889C125.6 18.0531 125.487 18.1983 125.347 18.3147C125.206 18.431 125.042 18.5157 124.866 18.5629Z" fill="#D9232E"/>
<path d="M118.583 20.6077C118.337 20.6076 118.095 20.5487 117.877 20.436C117.659 20.3232 117.471 20.16 117.329 19.9597C117.141 19.7019 117.037 19.3926 117.03 19.0737C117.024 18.7548 117.116 18.4415 117.293 18.1764L120.741 13.0702C120.865 12.8863 121.028 12.7309 121.217 12.6143C121.406 12.4978 121.617 12.4227 121.838 12.394C122.058 12.3654 122.282 12.3838 122.494 12.4481C122.707 12.5124 122.904 12.6211 123.071 12.767C124.31 13.8587 125.292 15.2106 125.948 16.726C126.038 16.9306 126.083 17.1521 126.081 17.3756C126.078 17.5992 126.027 17.8195 125.932 18.0218C125.837 18.224 125.699 18.4035 125.529 18.5481C125.358 18.6927 125.159 18.7991 124.944 18.86L118.999 20.5601C118.863 20.5945 118.723 20.6105 118.583 20.6077ZM122.043 12.9632H121.918C121.78 12.9805 121.648 13.0272 121.53 13.1C121.412 13.1728 121.311 13.2701 121.234 13.3852L117.786 18.4915C117.676 18.6573 117.618 18.8531 117.622 19.0526C117.626 19.252 117.691 19.4455 117.808 19.6069C117.925 19.7683 118.089 19.8897 118.278 19.955C118.466 20.0202 118.67 20.026 118.862 19.9716L124.807 18.2715C124.936 18.2314 125.056 18.1647 125.159 18.0757C125.261 17.9866 125.344 17.8772 125.401 17.7544C125.46 17.6277 125.49 17.4897 125.49 17.3502C125.49 17.2106 125.46 17.0726 125.401 16.9459C124.783 15.5095 123.853 14.2283 122.679 13.195C122.501 13.0438 122.276 12.9615 122.043 12.9632Z" fill="#D9232E"/>
<path fill-rule="evenodd" clip-rule="evenodd" d="M111.034 4.17727C109.987 4.45474 108.968 4.82886 107.99 5.29482C107.832 5.36979 107.69 5.47696 107.575 5.60952C107.46 5.74209 107.374 5.89715 107.322 6.06485C107.27 6.23256 107.253 6.40925 107.273 6.58369C107.293 6.75813 107.349 6.92651 107.438 7.07814L113.227 17.1004C113.363 17.3494 113.578 17.5456 113.839 17.6577C114.099 17.7697 114.39 17.7912 114.664 17.7186C114.938 17.6459 115.179 17.4835 115.35 17.2571C115.521 17.0308 115.611 16.7538 115.605 16.4703V4.91438C115.605 4.73951 115.569 4.56658 115.498 4.4064C115.428 4.24623 115.326 4.10223 115.197 3.98341C115.069 3.86459 114.918 3.7735 114.753 3.71583C114.588 3.65816 114.412 3.63514 114.238 3.64821C113.156 3.72596 112.084 3.90306 111.034 4.17727Z" fill="#D9232E"/>
<path d="M114.303 18.0575C114.029 18.0563 113.76 17.9811 113.524 17.8399C113.289 17.6986 113.096 17.4966 112.966 17.255L107.182 7.23276C107.074 7.04548 107.006 6.83808 106.981 6.62337C106.957 6.40867 106.976 6.19121 107.039 5.98443C107.103 5.77872 107.209 5.58851 107.35 5.42583C107.491 5.26314 107.665 5.13151 107.859 5.03927C108.855 4.56499 109.891 4.18295 110.957 3.89794C112.019 3.61197 113.105 3.42491 114.202 3.33917C114.418 3.3228 114.634 3.35107 114.838 3.4222C115.042 3.49333 115.229 3.60579 115.387 3.75255C115.546 3.8993 115.672 4.07718 115.759 4.27506C115.845 4.47295 115.89 4.68656 115.89 4.90255V16.4882C115.895 16.8337 115.784 17.1707 115.573 17.4448C115.363 17.7188 115.066 17.9138 114.731 17.9981C114.592 18.0374 114.448 18.0574 114.303 18.0575ZM114.303 3.93955H114.226C113.165 4.02222 112.114 4.20331 111.087 4.48049C110.065 4.75564 109.07 5.12374 108.115 5.58021C107.994 5.63916 107.887 5.72239 107.8 5.82468C107.713 5.92697 107.649 6.04612 107.61 6.17465C107.568 6.3023 107.555 6.43741 107.57 6.57077C107.585 6.70414 107.629 6.83261 107.699 6.94743L113.483 16.9697C113.594 17.1429 113.758 17.2761 113.95 17.3502C114.142 17.4242 114.352 17.4352 114.551 17.3816C114.749 17.3279 114.926 17.2124 115.055 17.0518C115.183 16.8912 115.257 16.6938 115.266 16.4882V4.91444C115.272 4.7785 115.25 4.64277 115.201 4.51587C115.152 4.38897 115.077 4.27368 114.981 4.17733C114.801 4.01833 114.567 3.93338 114.327 3.93955H114.303Z" fill="#D9232E"/>
</svg>
