<svg width="24" height="18" viewBox="0 0 24 18" fill="none" xmlns="http://www.w3.org/2000/svg">
<g clip-path="url(#clip0_1_1068)">
<path d="M23.3706 3.40423C23.104 2.37923 22.304 1.5709 21.279 1.2959C19.4373 0.795898 12.0373 0.795898 12.0373 0.795898C12.0373 0.795898 4.64564 0.795898 2.79564 1.2959C1.77898 1.5709 0.978977 2.37923 0.712311 3.40423C0.212311 5.26257 0.212311 9.12923 0.212311 9.12923C0.212311 9.12923 0.212311 13.0042 0.703977 14.8626C0.978977 15.8876 1.77898 16.6959 2.79564 16.9709C4.64564 17.4626 12.0373 17.4626 12.0373 17.4626C12.0373 17.4626 19.4373 17.4626 21.279 16.9709C22.2956 16.6959 23.104 15.8876 23.3706 14.8626C23.8706 13.0042 23.8706 9.12923 23.8706 9.12923C23.8706 9.12923 23.8706 5.26257 23.3706 3.40423ZM9.62064 12.6542V5.61257L15.804 9.12923L9.62064 12.6542Z" fill="white"/>
</g>
<defs>
<clipPath id="clip0_1_1068">
<rect width="23.6583" height="16.6667" fill="white" transform="translate(0.212311 0.795898)"/>
</clipPath>
</defs>
</svg>
