<?xml version="1.0" encoding="UTF-8"?> <svg xmlns="http://www.w3.org/2000/svg" width="24" height="18" viewBox="0 0 24 18" fill="none"><g clip-path="url(#clip0_1_296)"><path d="M23.2459 3.27499C22.9792 2.24999 22.1792 1.44166 21.1542 1.16666C19.3125 0.666656 11.9125 0.666656 11.9125 0.666656C11.9125 0.666656 4.52086 0.666656 2.67086 1.16666C1.65419 1.44166 0.854191 2.24999 0.587524 3.27499C0.0875244 5.13332 0.0875244 8.99999 0.0875244 8.99999C0.0875244 8.99999 0.0875244 12.875 0.579191 14.7333C0.854191 15.7583 1.65419 16.5667 2.67086 16.8417C4.52086 17.3333 11.9125 17.3333 11.9125 17.3333C11.9125 17.3333 19.3125 17.3333 21.1542 16.8417C22.1709 16.5667 22.9792 15.7583 23.2459 14.7333C23.7459 12.875 23.7459 8.99999 23.7459 8.99999C23.7459 8.99999 23.7459 5.13332 23.2459 3.27499ZM9.49586 12.525V5.48333L15.6792 8.99999L9.49586 12.525Z" fill="#FFDA1D"></path></g><defs><clipPath id="clip0_1_296"><rect width="23.6583" height="16.6667" fill="white" transform="translate(0.0875244 0.666656)"></rect></clipPath></defs></svg> 